<?xml version="1.0" encoding="UTF-8"?>
<svg version="1.1" xmlns="http://www.w3.org/2000/svg" width="600" height="600">
<path d="M0 0 C198 0 396 0 600 0 C600 198 600 396 600 600 C402 600 204 600 0 600 C0 402 0 204 0 0 Z " fill="#FEFEFE" transform="translate(0,0)"/>
<path d="M0 0 C57.34541985 0 57.34541985 0 67.23828125 9.046875 C73.24911425 15.42033595 76.08280339 20.72317161 76.3125 29.5 C76.04610849 37.89712364 74.1314723 46.23374419 68.5 52.73046875 C64.1994645 56.76222078 59.65497835 58.53816886 54 60 C59.16065364 66.91826756 64.36156113 73.80179646 69.63623047 80.63354492 C70.75900901 82.08785616 71.87958602 83.54386631 73 85 C73.60714844 85.71671875 74.21429688 86.4334375 74.83984375 87.171875 C75.22269531 87.77515625 75.60554688 88.3784375 76 89 C75.1875 92.25 75.1875 92.25 74 95 C72.35 95.33 70.7 95.66 69 96 C69 95.34 69 94.68 69 94 C68.01 94 67.02 94 66 94 C65.34 94.99 64.68 95.98 64 97 C64 94.69 64 92.38 64 90 C62.02 90 60.04 90 58 90 C58 92.64 58 95.28 58 98 C57.34 98 56.68 98 56 98 C56 97.01 56 96.02 56 95 C55.01 95 54.02 95 53 95 C52.67 94.01 52.34 93.02 52 92 C51.34 92 50.68 92 50 92 C50 89.03 50 86.06 50 83 C49.34 83 48.68 83 48 83 C48 85.97 48 88.94 48 92 C43.78243732 89.89121866 43.0015189 88.94517907 40.6171875 85.09765625 C39.70259766 83.63875977 39.70259766 83.63875977 38.76953125 82.15039062 C38.14433594 81.13138672 37.51914062 80.11238281 36.875 79.0625 C36.24207031 78.04736328 35.60914063 77.03222656 34.95703125 75.98632812 C33.78302617 74.1031841 32.61315624 72.21745145 31.44873047 70.32836914 C30.33102608 68.53201816 29.1735731 66.76035966 28 65 C27.67 77.21 27.34 89.42 27 102 C26.34 102 25.68 102 25 102 C25 101.34 25 100.68 25 100 C23.35 100 21.7 100 20 100 C20 99.01 20 98.02 20 97 C18.35 97 16.7 97 15 97 C15 95.68 15 94.36 15 93 C13.35369672 93.14042877 11.70795821 93.28749329 10.0625 93.4375 C9.14597656 93.51871094 8.22945313 93.59992188 7.28515625 93.68359375 C5.03840268 93.76044976 5.03840268 93.76044976 4 95 C3.76924918 96.34747084 3.58846937 97.70377565 3.4375 99.0625 C3.2209375 101.0115625 3.2209375 101.0115625 3 103 C2.01 103 1.02 103 0 103 C0 69.01 0 35.02 0 0 Z " fill="#030303" transform="translate(436,250)"/>
<path d="M0 0 C57.16117851 0 57.16117851 0 69 11 C75.17686969 19.19491983 75.81688694 27.98730005 75 38 C73.15676084 45.92814914 68.75706126 52.90441234 61.875 57.3828125 C58.69000886 59.05727475 56.64235676 60 53 60 C54.97581883 62.6067217 56.955722 65.21030605 58.9375 67.8125 C59.52490967 68.58408447 60.11231934 69.35566895 60.7175293 70.15063477 C64.8455199 75.54972899 69.08502301 80.81811503 73.48828125 85.99609375 C75 88 75 88 75 90 C74.34 90 73.68 90 73 90 C73 91.65 73 93.3 73 95 C71.35 95.33 69.7 95.66 68 96 C68 95.34 68 94.68 68 94 C67.01 94 66.02 94 65 94 C65 94.99 65 95.98 65 97 C64.34 97 63.68 97 63 97 C63 94.69 63 92.38 63 90 C61.02 90 59.04 90 57 90 C57 92.64 57 95.28 57 98 C56.01 97.505 56.01 97.505 55 97 C55 96.34 55 95.68 55 95 C54.01 94.67 53.02 94.34 52 94 C52.33 92.35 52.66 90.7 53 89 C52.34 89 51.68 89 51 89 C51 89.99 51 90.98 51 92 C50.34 92 49.68 92 49 92 C48.505 88.535 48.505 88.535 48 85 C47.67 87.31 47.34 89.62 47 92 C45.68 91.34 44.36 90.68 43 90 C43 89.01 43 88.02 43 87 C42.34 87 41.68 87 41 87 C39.448834 84.84094462 38.02335856 82.69269592 36.625 80.4375 C36.23828125 79.82841797 35.8515625 79.21933594 35.453125 78.59179688 C28 66.77434197 28 66.77434197 28 64 C27.34 64 26.68 64 26 64 C26 76.54 26 89.08 26 102 C25.34 102 24.68 102 24 102 C24 101.34 24 100.68 24 100 C22.68 100 21.36 100 20 100 C19.67 99.01 19.34 98.02 19 97 C16.98491642 96.26676204 16.98491642 96.26676204 15 96 C15 95.01 15 94.02 15 93 C11.04 93 7.08 93 3 93 C2.67 95.97 2.34 98.94 2 102 C1.34 102 0.68 102 0 102 C0 68.34 0 34.68 0 0 Z " fill="#040404" transform="translate(93,250)"/>
<path d="M0 0 C18.15 0 36.3 0 55 0 C55 7.59 55 15.18 55 23 C45.76 23 36.52 23 27 23 C27 28.94 27 34.88 27 41 C35.58 41 44.16 41 53 41 C53 48.59 53 56.18 53 64 C44.42 64 35.84 64 27 64 C27 69.61 27 75.22 27 81 C36.24 81 45.48 81 55 81 C55 84.63 55 88.26 55 92 C54.67 90.68 54.34 89.36 54 88 C51.03 88 48.06 88 45 88 C45 89.98 45 91.96 45 94 C44.01 94 43.02 94 42 94 C42 93.34 42 92.68 42 92 C41.34 92 40.68 92 40 92 C39.67 94.31 39.34 96.62 39 99 C36.03 98.67 33.06 98.34 30 98 C30 98.99 30 99.98 30 101 C28.35 101 26.7 101 25 101 C25 98.69 25 96.38 25 94 C23.37433394 94.47690204 21.74948689 94.95659666 20.125 95.4375 C19.22007812 95.70433594 18.31515625 95.97117187 17.3828125 96.24609375 C15.01724619 96.92613826 15.01724619 96.92613826 13 98 C13 97.01 13 96.02 13 95 C10.69 95 8.38 95 6 95 C6 96.98 6 98.96 6 101 C4.02 101 2.04 101 0 101 C0 67.67 0 34.34 0 0 Z " fill="#030303" transform="translate(515,250)"/>
<path d="M0 0 C17.82 0 35.64 0 54 0 C54 7.26 54 14.52 54 22 C45.09 22 36.18 22 27 22 C27 28.27 27 34.54 27 41 C35.58 41 44.16 41 53 41 C53 48.59 53 56.18 53 64 C44.42 64 35.84 64 27 64 C27 69.61 27 75.22 27 81 C36.24 81 45.48 81 55 81 C55 84.63 55 88.26 55 92 C54.34 92 53.68 92 53 92 C53 90.68 53 89.36 53 88 C50.36 88 47.72 88 45 88 C45 89.98 45 91.96 45 94 C42.525 94.495 42.525 94.495 40 95 C39.67 96.65 39.34 98.3 39 100 C38.34 100 37.68 100 37 100 C37 99.34 37 98.68 37 98 C34.69 98 32.38 98 30 98 C30 98.99 30 99.98 30 101 C28.35 101 26.7 101 25 101 C24.67 98.69 24.34 96.38 24 94 C22.35232753 94.28109113 20.70686855 94.57518526 19.0625 94.875 C18.14597656 95.03742188 17.22945312 95.19984375 16.28515625 95.3671875 C15.53105469 95.57601562 14.77695313 95.78484375 14 96 C13.505 96.99 13.505 96.99 13 98 C13 97.01 13 96.02 13 95 C10.69 95 8.38 95 6 95 C6 96.98 6 98.96 6 101 C4.02 101 2.04 101 0 101 C0 67.67 0 34.34 0 0 Z " fill="#070707" transform="translate(233,250)"/>
<path d="M0 0 C17.82 0 35.64 0 54 0 C54 7.26 54 14.52 54 22 C44.76 22 35.52 22 26 22 C26 28.27 26 34.54 26 41 C34.91 41 43.82 41 53 41 C53 48.59 53 56.18 53 64 C44.42 64 35.84 64 27 64 C27 69.61 27 75.22 27 81 C35.91 81 44.82 81 54 81 C54 84.63 54 88.26 54 92 C53.34 91.01 52.68 90.02 52 89 C50.03638136 88.42251197 50.03638136 88.42251197 47.875 88.3125 C46.59625 88.209375 45.3175 88.10625 44 88 C44 89.98 44 91.96 44 94 C43.01 94 42.02 94 41 94 C41 93.34 41 92.68 41 92 C40.34 92 39.68 92 39 92 C38.67 94.31 38.34 96.62 38 99 C35.36 98.67 32.72 98.34 30 98 C30 98.99 30 99.98 30 101 C28.02 101 26.04 101 24 101 C24 98.69 24 96.38 24 94 C20.535 94.495 20.535 94.495 17 95 C17 95.66 17 96.32 17 97 C14.525 97.495 14.525 97.495 12 98 C12 97.01 12 96.02 12 95 C10.02 95 8.04 95 6 95 C6 96.98 6 98.96 6 101 C4.02 101 2.04 101 0 101 C0 67.67 0 34.34 0 0 Z " fill="#0B0B0B" transform="translate(172,250)"/>
<path d="M0 0 C19.14 0 38.28 0 58 0 C58 8.25 58 16.5 58 25 C47.77 25 37.54 25 27 25 C27 30.28 27 35.56 27 41 C36.24 41 45.48 41 55 41 C55 48.59 55 56.18 55 64 C45.76 64 36.52 64 27 64 C27 74.56 27 85.12 27 96 C26.34 96 25.68 96 25 96 C25 98.97 25 101.94 25 105 C24.34 105 23.68 105 23 105 C23 103.68 23 102.36 23 101 C21.01508358 101.26676204 21.01508358 101.26676204 19 102 C18.67 102.99 18.34 103.98 18 105 C17.34 105 16.68 105 16 105 C16 100.71 16 96.42 16 92 C14.02 92 12.04 92 10 92 C10 89.36 10 86.72 10 84 C8.68 84 7.36 84 6 84 C6 83.01 6 82.02 6 81 C5.34 81 4.68 81 4 81 C4 80.01 4 79.02 4 78 C3.34 78 2.68 78 2 78 C2 78.99 2 79.98 2 81 C1.34 81 0.68 81 0 81 C0 54.27 0 27.54 0 0 Z " fill="#060606" transform="translate(30,250)"/>
<path d="M0 0 C19.47 0 38.94 0 59 0 C59 8.25 59 16.5 59 25 C48.44 25 37.88 25 27 25 C27 30.61 27 36.22 27 42 C36.24 42 45.48 42 55 42 C55 48.93 55 55.86 55 63 C45.76 63 36.52 63 27 63 C27 73.89 27 84.78 27 96 C26.34 96 25.68 96 25 96 C25 98.64 25 101.28 25 104 C24.34 104 23.68 104 23 104 C23 103.01 23 102.02 23 101 C20.52733235 101.34444881 20.52733235 101.34444881 18 102 C17.67 102.66 17.34 103.32 17 104 C16.67 100.37 16.34 96.74 16 93 C14.02 92.67 12.04 92.34 10 92 C10 89.36 10 86.72 10 84 C8.68 84 7.36 84 6 84 C6 83.01 6 82.02 6 81 C4.02 81 2.04 81 0 81 C0 54.27 0 27.54 0 0 Z " fill="#010101" transform="translate(314,250)"/>
<path d="M0 0 C4.86825519 15.78203809 4.48244918 31.64743128 4.2746582 47.97680664 C4.23309524 51.59772236 4.21533553 55.21875621 4.1953125 58.83984375 C4.15293109 65.89350976 4.08503402 72.94670804 4 80 C6.31 80 8.62 80 11 80 C11.375 82.6875 11.375 82.6875 11 86 C10.0203125 86.5775 9.040625 87.155 8.03125 87.75 C5.42168624 89.7949687 5.02116259 90.88427421 4.41259766 94.2121582 C4.18372342 98.25551727 4.11566732 102.26444974 4.125 106.3125 C4.10686374 107.73506298 4.08605809 109.1575946 4.0625 110.58007812 C4.01077309 114.05355853 3.99556049 117.52608539 4 121 C3.34 121 2.68 121 2 121 C1.34 122.32 0.68 123.64 0 125 C-0.66 125 -1.32 125 -2 125 C-2 119.39 -2 113.78 -2 108 C-2.66 108 -3.32 108 -4 108 C-4.33 116.91 -4.66 125.82 -5 135 C-5.99 134.67 -6.98 134.34 -8 134 C-8.33 128.06 -8.66 122.12 -9 116 C-10.485 116.495 -10.485 116.495 -12 117 C-12.33 118.98 -12.66 120.96 -13 123 C-13.66 123 -14.32 123 -15 123 C-15 121.35 -15 119.7 -15 118 C-15.66 117.67 -16.32 117.34 -17 117 C-17.00410889 116.23856689 -17.00821777 115.47713379 -17.01245117 114.69262695 C-17.0454114 111.23180334 -17.11606054 107.77273429 -17.1875 104.3125 C-17.19620117 102.51522461 -17.19620117 102.51522461 -17.20507812 100.68164062 C-17.13285786 94.65976139 -17.13285786 94.65976139 -19.15551758 89.16870117 C-20.65699589 87.71141493 -20.65699589 87.71141493 -23 86 C-23.3125 82.6875 -23.3125 82.6875 -23 80 C-21.3603125 79.7834375 -21.3603125 79.7834375 -19.6875 79.5625 C-16.06877013 79.11711896 -16.06877013 79.11711896 -13 78 C-13 77.34 -13 76.68 -13 76 C-12.34 76 -11.68 76 -11 76 C-11 74.35 -11 72.7 -11 71 C-12.65 71.99 -14.3 72.98 -16 74 C-15.6875 72.125 -15.6875 72.125 -15 70 C-13.515 69.01 -13.515 69.01 -12 68 C-11.27034634 65.43717258 -11.27034634 65.43717258 -11 63 C-12.65 63.99 -14.3 64.98 -16 66 C-16 65.01 -16 64.02 -16 63 C-15.0409375 62.319375 -15.0409375 62.319375 -14.0625 61.625 C-11.75235447 60.1337227 -11.75235447 60.1337227 -11.25 57.3125 C-11.1675 56.549375 -11.085 55.78625 -11 55 C-11.66 55 -12.32 55 -13 55 C-13 55.66 -13 56.32 -13 57 C-14.485 57.495 -14.485 57.495 -16 58 C-16 57.01 -16 56.02 -16 55 C-15.34 54.525625 -14.68 54.05125 -14 53.5625 C-13.34 53.046875 -12.68 52.53125 -12 52 C-12 50.68 -12 49.36 -12 48 C-13.32 48.66 -14.64 49.32 -16 50 C-14.25 46.125 -14.25 46.125 -12 45 C-11.34444881 42.47266765 -11.34444881 42.47266765 -11 40 C-11.61875 40.495 -12.2375 40.99 -12.875 41.5 C-15 43 -15 43 -17 43 C-17.96251381 28.221711 -17.67341285 17.27146651 -7.82421875 5.37109375 C-2.71467391 0 -2.71467391 0 0 0 Z " fill="#FEA824" transform="translate(410,232)"/>
<path d="M0 0 C18.15 0 36.3 0 55 0 C55 7.59 55 15.18 55 23 C45.76 23 36.52 23 27 23 C27 22.67 27 22.34 27 22 C35.91 22 44.82 22 54 22 C54 15.07 54 8.14 54 1 C36.51 1 19.02 1 1 1 C1 8.59 1 16.18 1 24 C1.66 24 2.32 24 3 24 C2.79375 23.38125 2.5875 22.7625 2.375 22.125 C2.189375 21.073125 2.189375 21.073125 2 20 C2.66 19.34 3.32 18.68 4 18 C4.33 18.33 4.66 18.66 5 19 C5.33 18.34 5.66 17.68 6 17 C5.34 17 4.68 17 4 17 C4 15.35 4 13.7 4 12 C6.97 12.495 6.97 12.495 10 13 C10.33 14.65 10.66 16.3 11 18 C10.01 18.33 9.02 18.66 8 19 C8.99 19.66 9.98 20.32 11 21 C11 21.66 11 22.32 11 23 C9.35 23.33 7.7 23.66 6 24 C6.33 25.32 6.66 26.64 7 28 C8.32 28 9.64 28 11 28 C11.04254356 29.99954746 11.04080783 32.00041636 11 34 C10.505 34.495 10.505 34.495 10 35 C10.66 35.33 11.32 35.66 12 36 C12.59765625 37.77734375 12.59765625 37.77734375 13.0625 39.9375 C13.55309711 42.17154137 13.97397802 43.94795605 15 46 C14.67 46.66 14.34 47.32 14 48 C15.32 48 16.64 48 18 48 C17.64766839 53.4611399 17.64766839 53.4611399 17 56 C14.9375 57.5 14.9375 57.5 13 58 C13 58.66 13 59.32 13 60 C12.34 60 11.68 60 11 60 C10.67 61.32 10.34 62.64 10 64 C10.99 64.33 11.98 64.66 13 65 C12.505 65.99 12.505 65.99 12 67 C8.33333333 67 4.66666667 67 1 67 C1.33 73.93 1.66 80.86 2 88 C3.65 88 5.3 88 7 88 C7 87.34 7 86.68 7 86 C7.639375 85.896875 8.27875 85.79375 8.9375 85.6875 C9.618125 85.460625 10.29875 85.23375 11 85 C11.33 84.01 11.66 83.02 12 82 C13.33076989 81.65657551 14.66431979 81.32380126 16 81 C16.66 80.01 17.32 79.02 18 78 C17.01 78 16.02 78 15 78 C15 77.34 15 76.68 15 76 C15.99 76 16.98 76 18 76 C18.33 73.69 18.66 71.38 19 69 C17.02 69.495 17.02 69.495 15 70 C14.67 69.01 14.34 68.02 14 67 C15.65 67 17.3 67 19 67 C19.495 65.515 19.495 65.515 20 64 C20.33 64.99 20.66 65.98 21 67 C21.66 67 22.32 67 23 67 C23.66 67.99 24.32 68.98 25 70 C25.33 68.02 25.66 66.04 26 64 C26.33 64 26.66 64 27 64 C27 69.61 27 75.22 27 81 C36.24 81 45.48 81 55 81 C55 84.63 55 88.26 55 92 C54.67 90.68 54.34 89.36 54 88 C51.03 88 48.06 88 45 88 C45 89.98 45 91.96 45 94 C44.01 94 43.02 94 42 94 C42 93.34 42 92.68 42 92 C41.34 92 40.68 92 40 92 C39.67 94.31 39.34 96.62 39 99 C36.03 98.67 33.06 98.34 30 98 C30 98.99 30 99.98 30 101 C28.35 101 26.7 101 25 101 C25 98.69 25 96.38 25 94 C23.37433394 94.47690204 21.74948689 94.95659666 20.125 95.4375 C19.22007812 95.70433594 18.31515625 95.97117187 17.3828125 96.24609375 C15.01724619 96.92613826 15.01724619 96.92613826 13 98 C13 97.01 13 96.02 13 95 C10.69 95 8.38 95 6 95 C6 96.98 6 98.96 6 101 C4.02 101 2.04 101 0 101 C0 67.67 0 34.34 0 0 Z " fill="#090909" transform="translate(515,250)"/>
<path d="M0 0 C17.82 0 35.64 0 54 0 C54 7.26 54 14.52 54 22 C44.76 22 35.52 22 26 22 C26 23.32 26 24.64 26 26 C25.01 26 24.02 26 23 26 C22.505 23.525 22.505 23.525 22 21 C21.01 20.67 20.02 20.34 19 20 C18.67 19.01 18.34 18.02 18 17 C17.34 17.99 16.68 18.98 16 20 C15.67 19.67 15.34 19.34 15 19 C14.67 19.66 14.34 20.32 14 21 C10.9375 21.625 10.9375 21.625 8 22 C8.020625 22.94875 8.04125 23.8975 8.0625 24.875 C8 28 8 28 7 30 C7.66 30 8.32 30 9 30 C9.33 32.31 9.66 34.62 10 37 C9.01 37.495 9.01 37.495 8 38 C8 38.99 8 39.98 8 41 C6.625 43.1875 6.625 43.1875 5 45 C4.34 45 3.68 45 3 45 C3 46.32 3 47.64 3 49 C3.99 49.33 4.98 49.66 6 50 C5.34 50.99 4.68 51.98 4 53 C4.99 53 5.98 53 7 53 C7 51.68 7 50.36 7 49 C10.465 48.505 10.465 48.505 14 48 C14 48.66 14 49.32 14 50 C12.515 50.495 12.515 50.495 11 51 C10.34 50.67 9.68 50.34 9 50 C9 51.32 9 52.64 9 54 C8.34 54 7.68 54 7 54 C7 54.66 7 55.32 7 56 C5.02 56.495 5.02 56.495 3 57 C3 57.66 3 58.32 3 59 C3.66 59 4.32 59 5 59 C5.33 60.65 5.66 62.3 6 64 C7.485 63.505 7.485 63.505 9 63 C9.33 64.32 9.66 65.64 10 67 C8.68 66.67 7.36 66.34 6 66 C6 66.66 6 67.32 6 68 C6.99 68.33 7.98 68.66 9 69 C6 70 6 70 0 70 C0 46.9 0 23.8 0 0 Z " fill="#040404" transform="translate(172,250)"/>
<path d="M0 0 C19.47 0 38.94 0 59 0 C59 8.25 59 16.5 59 25 C48.44 25 37.88 25 27 25 C27 24.67 27 24.34 27 24 C37.23 24 47.46 24 58 24 C58 16.41 58 8.82 58 1 C39.19 1 20.38 1 1 1 C1.33 20.8 1.66 40.6 2 61 C2.99 61.33 3.98 61.66 5 62 C5 62.66 5 63.32 5 64 C8.65456815 64.75241109 12.31733897 65.40049704 16 66 C16 66.66 16 67.32 16 68 C14.515 68.495 14.515 68.495 13 69 C13.66 70.32 14.32 71.64 15 73 C13.515 73.495 13.515 73.495 12 74 C12 74.66 12 75.32 12 76 C13.98 75.505 13.98 75.505 16 75 C16.33 75.99 16.66 76.98 17 78 C18.485 78.495 18.485 78.495 20 79 C20 77.68 20 76.36 20 75 C20.99 74.01 20.99 74.01 22 73 C21.34 73 20.68 73 20 73 C20 71 20 71 22 69 C20.515 68.01 20.515 68.01 19 67 C19.33 66.67 19.66 66.34 20 66 C20.04063832 64.33382885 20.042721 62.66611905 20 61 C21.485 60.505 21.485 60.505 23 60 C22.95875 59.05125 22.9175 58.1025 22.875 57.125 C23 54 23 54 25 52 C25.92844389 56.33273814 25.92844389 59.66726186 25 64 C24.01 64 23.02 64 22 64 C22 64.66 22 65.32 22 66 C25.0745356 65.2236068 25.0745356 65.2236068 27 63 C27 73.89 27 84.78 27 96 C26.34 96 25.68 96 25 96 C25 98.64 25 101.28 25 104 C24.34 104 23.68 104 23 104 C23 103.01 23 102.02 23 101 C20.52733235 101.34444881 20.52733235 101.34444881 18 102 C17.67 102.66 17.34 103.32 17 104 C16.67 100.37 16.34 96.74 16 93 C14.02 92.67 12.04 92.34 10 92 C10 89.36 10 86.72 10 84 C8.68 84 7.36 84 6 84 C6 83.01 6 82.02 6 81 C4.02 81 2.04 81 0 81 C0 54.27 0 27.54 0 0 Z " fill="#333333" transform="translate(314,250)"/>
<path d="M0 0 C4.72360311 15.79238448 4.46637873 31.26186873 4.25 47.625 C4.22757411 50.28904892 4.21164865 52.95308856 4.1953125 55.6171875 C4.1516924 62.07845262 4.08512922 68.53915527 4 75 C2.515 74.505 2.515 74.505 1 74 C1 72.68 1 71.36 1 70 C0.34 69.34 -0.32 68.68 -1 68 C-0.01 68 0.98 68 2 68 C2 67.34 2 66.68 2 66 C0.02 66.495 0.02 66.495 -2 67 C-1 65 -1 65 0 64 C-1.98 64 -3.96 64 -6 64 C-6.495 64.99 -6.495 64.99 -7 66 C-7.99 65.67 -8.98 65.34 -10 65 C-10 64.01 -10 63.02 -10 62 C-8.35 61.34 -6.7 60.68 -5 60 C-4.01 60.99 -3.02 61.98 -2 63 C-2 62.34 -2 61.68 -2 61 C-2.66 61 -3.32 61 -4 61 C-4.33 60.34 -4.66 59.68 -5 59 C-5.66 58.67 -6.32 58.34 -7 58 C-6.34 56.02 -5.68 54.04 -5 52 C-4.01 52.99 -3.02 53.98 -2 55 C-1.505 54.505 -1.505 54.505 -1 54 C-1.66 53.34 -2.32 52.68 -3 52 C-3.39764263 50.01178687 -3.73775349 48.01055661 -4 46 C-4.99 45.67 -5.98 45.34 -7 45 C-5.515 44.505 -5.515 44.505 -4 44 C-4 42.35 -4 40.7 -4 39 C-5.32 38.67 -6.64 38.34 -8 38 C-7.67 38.99 -7.34 39.98 -7 41 C-7.33 41.66 -7.66 42.32 -8 43 C-8.66 43 -9.32 43 -10 43 C-10 41.68 -10 40.36 -10 39 C-10.99 38.67 -11.98 38.34 -13 38 C-11.02 37.505 -11.02 37.505 -9 37 C-9 35.68 -9 34.36 -9 33 C-10.32 33 -11.64 33 -13 33 C-13 34.32 -13 35.64 -13 37 C-13.99 37 -14.98 37 -16 37 C-16.79109175 24.63552894 -16.23428571 15.42341798 -7.890625 5.48828125 C-2.64179756 0 -2.64179756 0 0 0 Z " fill="#FEA51E" transform="translate(410,232)"/>
<path d="M0 0 C15.51 0 31.02 0 47 0 C47 0.33 47 0.66 47 1 C31.82 1 16.64 1 1 1 C1.33 30.37 1.66 59.74 2 90 C2.99 90 3.98 90 5 90 C5 89.34 5 88.68 5 88 C6.485 87.505 6.485 87.505 8 87 C8 87.99 8 88.98 8 90 C10.31 90.66 12.62 91.32 15 92 C15.495 91.01 15.495 91.01 16 90 C18.0625 88.875 18.0625 88.875 20 88 C20.33 88.99 20.66 89.98 21 91 C21.66 91 22.32 91 23 91 C23.33 92.65 23.66 94.3 24 96 C24.66 96 25.32 96 26 96 C26 90.39 26 84.78 26 79 C22.72226496 79.75150023 22.72226496 79.75150023 21 83 C19.515 82.505 19.515 82.505 18 82 C18 81.01 18 80.02 18 79 C17.443125 78.773125 16.88625 78.54625 16.3125 78.3125 C13.36753316 76.64103234 11.31843456 74.44723648 9 72 C9.33 71.01 9.66 70.02 10 69 C11.32 69 12.64 69 14 69 C14 68.01 14 67.02 14 66 C15.63631892 64.95107762 17.30485863 63.95093297 19 63 C19.33 62.34 19.66 61.68 20 61 C19.34 61 18.68 61 18 61 C18.33 59.68 18.66 58.36 19 57 C18.34 57 17.68 57 17 57 C17.33 55.02 17.66 53.04 18 51 C19.258125 50.979375 20.51625 50.95875 21.8125 50.9375 C22.87404297 50.92009766 22.87404297 50.92009766 23.95703125 50.90234375 C26 51 26 51 29 52 C29 52.66 29 53.32 29 54 C29.66 54 30.32 54 31 54 C31.33 55.32 31.66 56.64 32 58 C31.01 58 30.02 58 29 58 C28.01865594 62.99402847 27.78944618 67.82995926 27.68359375 72.8984375 C27.66281265 73.73339752 27.64203156 74.56835754 27.62062073 75.42861938 C27.55560531 78.0773349 27.49646509 80.72614359 27.4375 83.375 C27.39426904 85.17839478 27.35065334 86.98178038 27.30664062 88.78515625 C27.19997361 93.19001039 27.09857305 97.5949576 27 102 C26.34 102 25.68 102 25 102 C25 101.34 25 100.68 25 100 C23.35 100 21.7 100 20 100 C20 99.01 20 98.02 20 97 C18.35 97 16.7 97 15 97 C15 95.68 15 94.36 15 93 C13.35369672 93.14042877 11.70795821 93.28749329 10.0625 93.4375 C9.14597656 93.51871094 8.22945313 93.59992188 7.28515625 93.68359375 C5.03840268 93.76044976 5.03840268 93.76044976 4 95 C3.76924918 96.34747084 3.58846937 97.70377565 3.4375 99.0625 C3.2209375 101.0115625 3.2209375 101.0115625 3 103 C2.01 103 1.02 103 0 103 C0 69.01 0 35.02 0 0 Z " fill="#202020" transform="translate(436,250)"/>
<path d="M0 0 C2.97 0.495 2.97 0.495 6 1 C6.33 2.65 6.66 4.3 7 6 C6.01 6.33 5.02 6.66 4 7 C4.99 7.66 5.98 8.32 7 9 C7 9.66 7 10.32 7 11 C5.35 11.33 3.7 11.66 2 12 C2.33 13.32 2.66 14.64 3 16 C4.32 16 5.64 16 7 16 C7.04254356 17.99954746 7.04080783 20.00041636 7 22 C6.67 22.33 6.34 22.66 6 23 C6.66 23.33 7.32 23.66 8 24 C8.59765625 25.77734375 8.59765625 25.77734375 9.0625 27.9375 C9.55309711 30.17154137 9.97397802 31.94795605 11 34 C10.67 34.66 10.34 35.32 10 36 C11.32 36 12.64 36 14 36 C13.64766839 41.4611399 13.64766839 41.4611399 13 44 C10.9375 45.5 10.9375 45.5 9 46 C9 46.66 9 47.32 9 48 C8.34 48 7.68 48 7 48 C6.67 49.32 6.34 50.64 6 52 C6.99 52.33 7.98 52.66 9 53 C8.67 53.66 8.34 54.32 8 55 C4.33333333 55 0.66666667 55 -3 55 C-3 40.81 -3 26.62 -3 12 C-2.34 12 -1.68 12 -1 12 C-1.20625 11.38125 -1.4125 10.7625 -1.625 10.125 C-1.74875 9.42375 -1.8725 8.7225 -2 8 C-1.34 7.34 -0.68 6.68 0 6 C0.33 6.33 0.66 6.66 1 7 C1.33 6.34 1.66 5.68 2 5 C1.34 5 0.68 5 0 5 C0 3.35 0 1.7 0 0 Z " fill="#040404" transform="translate(519,262)"/>
<path d="M0 0 C11.28908555 0 11.28908555 0 15 2.3125 C15.721875 2.74175781 16.44375 3.17101562 17.1875 3.61328125 C19.53868982 5.41214415 20.85122652 7.09178978 21.3359375 10.05078125 C21.43015759 15.50612451 20.92764405 18.87597375 17 23 C11.39869173 26.33802569 6.63849829 26 0 26 C0 17.42 0 8.84 0 0 Z " fill="#F0F0F0" transform="translate(119,270)"/>
<path d="M0 0 C13.125 -0.53571429 13.125 -0.53571429 16.6875 1.8125 C19.06367031 4.06022867 20.82190058 5.76486897 21.30078125 9.0859375 C21.32524163 13.86386495 21.23487615 17.20738658 18 21 C11.99937227 25.30814299 7.60242514 25 0 25 C0 16.75 0 8.5 0 0 Z " fill="#F5F5F5" transform="translate(463,271)"/>
<path d="M0 0 C0.33 0.99 0.66 1.98 1 3 C2.32 3 3.64 3 5 3 C5.33 4.32 5.66 5.64 6 7 C5.34 7 4.68 7 4 7 C2.8509288 8.9254644 2.8509288 8.9254644 3 11 C3 11.66 3 12.32 3 13 C2.01 13.495 2.01 13.495 1 14 C3.97 14.495 3.97 14.495 7 15 C7 15.99 7 16.98 7 18 C6.030625 18.268125 5.06125 18.53625 4.0625 18.8125 C3.051875 19.204375 2.04125 19.59625 1 20 C0.67 20.99 0.34 21.98 0 23 C2.475 23.99 2.475 23.99 5 25 C4.67 26.32 4.34 27.64 4 29 C3.34 29 2.68 29 2 29 C2.66 31.64 3.32 34.28 4 37 C1.525 37.495 1.525 37.495 -1 38 C-0.67 39.65 -0.34 41.3 0 43 C-3.465 43.495 -3.465 43.495 -7 44 C-7.495 42.515 -7.495 42.515 -8 41 C-6.02 40.505 -6.02 40.505 -4 40 C-4 39.34 -4 38.68 -4 38 C-4.78375 37.855625 -5.5675 37.71125 -6.375 37.5625 C-9 37 -9 37 -11 36 C-10.62875 35.113125 -10.2575 34.22625 -9.875 33.3125 C-8.66611486 30.11813019 -8.66611486 30.11813019 -10 27.6875 C-11.52831243 23.58016035 -10.16470492 20.1123043 -9 16 C-8.34 16 -7.68 16 -7 16 C-6.67 15.34 -6.34 14.68 -6 14 C-5.34 14 -4.68 14 -4 14 C-4 14.99 -4 15.98 -4 17 C-3.01 16.01 -2.02 15.02 -1 14 C-1.66 14 -2.32 14 -3 14 C-3 13.34 -3 12.68 -3 12 C-3.99 12.33 -4.98 12.66 -6 13 C-5.67 11.35 -5.34 9.7 -5 8 C-6.32 8 -7.64 8 -9 8 C-9.33 6.35 -9.66 4.7 -10 3 C-8.02 3 -6.04 3 -4 3 C-4 2.34 -4 1.68 -4 1 C-2.68 0.67 -1.36 0.34 0 0 Z " fill="#262626" transform="translate(249,271)"/>
<path d="M0 0 C9.24 0 18.48 0 28 0 C28 3.63 28 7.26 28 11 C27.34 11 26.68 11 26 11 C26 9.68 26 8.36 26 7 C23.36 7 20.72 7 18 7 C18 8.98 18 10.96 18 13 C16.35 13.33 14.7 13.66 13 14 C12.67 15.65 12.34 17.3 12 19 C11.34 19 10.68 19 10 19 C10 18.34 10 17.68 10 17 C7.69 17 5.38 17 3 17 C3 17.99 3 18.98 3 20 C1.35 20 -0.3 20 -2 20 C-2.33 17.69 -2.66 15.38 -3 13 C-4.65 13 -6.3 13 -8 13 C-7.34 12.01 -6.68 11.02 -6 10 C-6 10.66 -6 11.32 -6 12 C-5.01 11.67 -4.02 11.34 -3 11 C-2.22984403 8.96069994 -2.22984403 8.96069994 -1.875 6.5625 C-1.06329114 2.12658228 -1.06329114 2.12658228 0 0 Z " fill="#0F0F0F" transform="translate(260,331)"/>
<path d="M0 0 C0.99 0.33 1.98 0.66 3 1 C2.67 1.66 2.34 2.32 2 3 C3.32 2.67 4.64 2.34 6 2 C5.814375 2.61875 5.62875 3.2375 5.4375 3.875 C4.76313824 6.04160178 4.76313824 6.04160178 6 8 C6.66 8.33 7.32 8.66 8 9 C8 9.99 8 10.98 8 12 C8.94978897 14.15028304 8.94978897 14.15028304 10 16 C10.33 15.01 10.66 14.02 11 13 C14.67219242 13 17.53500259 13.8030009 21 15 C21.99 16.485 21.99 16.485 23 18 C23.99 18.66 24.98 19.32 26 20 C25.67 20.66 25.34 21.32 25 22 C25.99 22.33 26.98 22.66 28 23 C27.34 23 26.68 23 26 23 C26.33 23.66 26.66 24.32 27 25 C27.66 25 28.32 25 29 25 C29.495 23.515 29.495 23.515 30 22 C30.66 22.99 31.32 23.98 32 25 C32 24.01 32 23.02 32 22 C32.66 22 33.32 22 34 22 C34 23.65 34 25.3 34 27 C34.66 27 35.32 27 36 27 C35.34 28.98 34.68 30.96 34 33 C35.32 33.33 36.64 33.66 38 34 C37.01 34 36.02 34 35 34 C35 34.99 35 35.98 35 37 C34.34 37 33.68 37 33 37 C33 34.69 33 32.38 33 30 C31.02 30 29.04 30 27 30 C27 32.64 27 35.28 27 38 C26.34 37.67 25.68 37.34 25 37 C25 36.34 25 35.68 25 35 C23.515 34.505 23.515 34.505 22 34 C22.33 32.35 22.66 30.7 23 29 C22.34 29 21.68 29 21 29 C21 29.99 21 30.98 21 32 C20.34 32 19.68 32 19 32 C18.67 29.69 18.34 27.38 18 25 C17.67 27.31 17.34 29.62 17 32 C15.68 31.34 14.36 30.68 13 30 C13 29.01 13 28.02 13 27 C12.34 27 11.68 27 11 27 C9.448834 24.84094462 8.02335856 22.69269592 6.625 20.4375 C6.23828125 19.82841797 5.8515625 19.21933594 5.453125 18.59179688 C-2 6.77434197 -2 6.77434197 -2 4 C-2.66 3.67 -3.32 3.34 -4 3 C-3.01 3 -2.02 3 -1 3 C-0.67 2.01 -0.34 1.02 0 0 Z " fill="#0C0C0C" transform="translate(123,310)"/>
<path d="M0 0 C0.33 0 0.66 0 1 0 C1 4.95 1 9.9 1 15 C3.05270463 13.15811388 3.05270463 13.15811388 4 11 C5.32 11 6.64 11 8 11 C8 12.32 8 13.64 8 15 C7.01 15.33 6.02 15.66 5 16 C5.66 16.33 6.32 16.66 7 17 C7 18.32 7 19.64 7 21 C7.66 21 8.32 21 9 21 C9 19.35 9 17.7 9 16 C10.32 16.33 11.64 16.66 13 17 C13 19 13 21 13 23 C14.94818168 29.14257426 14.94818168 29.14257426 19 34 C16.5625 33.625 16.5625 33.625 14 33 C13.67 32.34 13.34 31.68 13 31 C12.01 33.475 12.01 33.475 11 36 C11.99 36.33 12.98 36.66 14 37 C13.67 37.66 13.34 38.32 13 39 C13.66 39 14.32 39 15 39 C15 39.66 15 40.32 15 41 C14.13375 40.4740625 14.13375 40.4740625 13.25 39.9375 C10.64198224 38.85082593 9.60582371 39.06934867 7 40 C7.33 40.99 7.66 41.98 8 43 C8.66 43.33 9.32 43.66 10 44 C10.33 43.01 10.66 42.02 11 41 C13.97 41 16.94 41 20 41 C18.49336217 44.01327566 15.96833589 44.61056618 13 46 C13 46.99 13 47.98 13 49 C11.515 49.495 11.515 49.495 10 50 C10 50.66 10 51.32 10 52 C9.01 52 8.02 52 7 52 C6.67 52.66 6.34 53.32 6 54 C6 52.35 6 50.7 6 49 C4.35 49.99 2.7 50.98 1 52 C1.3125 50.125 1.3125 50.125 2 48 C2.99 47.34 3.98 46.68 5 46 C5.72965366 43.43717258 5.72965366 43.43717258 6 41 C4.35 41.99 2.7 42.98 1 44 C1 43.01 1 42.02 1 41 C1.9590625 40.319375 1.9590625 40.319375 2.9375 39.625 C5.24764553 38.1337227 5.24764553 38.1337227 5.75 35.3125 C5.8325 34.549375 5.915 33.78625 6 33 C5.34 33 4.68 33 4 33 C4 33.66 4 34.32 4 35 C2.515 35.495 2.515 35.495 1 36 C1 35.01 1 34.02 1 33 C1.66 32.525625 2.32 32.05125 3 31.5625 C3.66 31.046875 4.32 30.53125 5 30 C5 28.68 5 27.36 5 26 C3.02 26.99 3.02 26.99 1 28 C2.75 24.125 2.75 24.125 5 23 C5.65555119 20.47266765 5.65555119 20.47266765 6 18 C5.38125 18.495 4.7625 18.99 4.125 19.5 C2 21 2 21 0 21 C0 14.07 0 7.14 0 0 Z " fill="#FEAC2F" transform="translate(393,254)"/>
<path d="M0 0 C0.66 0 1.32 0 2 0 C1.67 1.32 1.34 2.64 1 4 C0.01 4 -0.98 4 -2 4 C-0.7625 5.423125 -0.7625 5.423125 0.5 6.875 C3 9.75 3 9.75 3 12 C5.97 12.495 5.97 12.495 9 13 C9 13.66 9 14.32 9 15 C9.66 15 10.32 15 11 15 C10.67 16.32 10.34 17.64 10 19 C10.66 19 11.32 19 12 19 C12.33 18.01 12.66 17.02 13 16 C14.65 15.67 16.3 15.34 18 15 C18.66 16.98 19.32 18.96 20 21 C27.59 21 35.18 21 43 21 C43 21.33 43 21.66 43 22 C33.76 22 24.52 22 15 22 C15 32.56 15 43.12 15 54 C14.34 54 13.68 54 13 54 C13 56.97 13 59.94 13 63 C12.34 62.67 11.68 62.34 11 62 C11 58.7 11 55.4 11 52 C11.66 52 12.32 52 13 52 C13.33 43.75 13.66 35.5 14 27 C11.69 28.32 9.38 29.64 7 31 C7 28.36 7 25.72 7 23 C4.69 23.33 2.38 23.66 0 24 C-0.33 22.68 -0.66 21.36 -1 20 C-0.34 20 0.32 20 1 20 C1 19.01 1 18.02 1 17 C0.01 17.33 -0.98 17.66 -2 18 C-3.23076923 12.58461538 -3.23076923 12.58461538 -2.0625 9.625 C-1.711875 9.08875 -1.36125 8.5525 -1 8 C-2.32 7.34 -3.64 6.68 -5 6 C-4.67 4.68 -4.34 3.36 -4 2 C-2.68 2 -1.36 2 0 2 C0 1.34 0 0.68 0 0 Z " fill="#AAAAAA" transform="translate(42,292)"/>
<path d="M0 0 C1.32 0 2.64 0 4 0 C4.04254356 1.99954746 4.04080783 4.00041636 4 6 C3.67 6.33 3.34 6.66 3 7 C3.66 7.33 4.32 7.66 5 8 C5.59765625 9.77734375 5.59765625 9.77734375 6.0625 11.9375 C6.55309711 14.17154137 6.97397802 15.94795605 8 18 C7.67 18.66 7.34 19.32 7 20 C8.32 20 9.64 20 11 20 C10.64766839 25.4611399 10.64766839 25.4611399 10 28 C7.9375 29.5 7.9375 29.5 6 30 C6 30.66 6 31.32 6 32 C5.34 32 4.68 32 4 32 C3.67 33.32 3.34 34.64 3 36 C3.99 36.33 4.98 36.66 6 37 C5.67 37.66 5.34 38.32 5 39 C3.68 38.67 2.36 38.34 1 38 C1 37.34 1 36.68 1 36 C-0.485 36.495 -0.485 36.495 -2 37 C-2 35.35 -2 33.7 -2 32 C-1.01 31.67 -0.02 31.34 1 31 C0.34 30.67 -0.32 30.34 -1 30 C-0.67 26.7 -0.34 23.4 0 20 C-1.98 20.99 -1.98 20.99 -4 22 C-4.33 19.03 -4.66 16.06 -5 13 C-4.01 12.67 -3.02 12.34 -2 12 C-1.67 12.99 -1.34 13.98 -1 15 C-0.89459074 12.78918149 -0.89459074 12.78918149 -2 10 C-1.34 10 -0.68 10 0 10 C-0.020625 9.236875 -0.04125 8.47375 -0.0625 7.6875 C0 5 0 5 1 2 C0.67 1.34 0.34 0.68 0 0 Z " fill="#141414" transform="translate(522,278)"/>
<path d="M0 0 C18.15 0 36.3 0 55 0 C55 7.59 55 15.18 55 23 C45.76 23 36.52 23 27 23 C27 22.67 27 22.34 27 22 C35.91 22 44.82 22 54 22 C54 15.07 54 8.14 54 1 C36.51 1 19.02 1 1 1 C1.33 31.03 1.66 61.06 2 92 C2.66 92 3.32 92 4 92 C4.33 93.32 4.66 94.64 5 96 C3.02 96.495 3.02 96.495 1 97 C0.67 98.32 0.34 99.64 0 101 C0 67.67 0 34.34 0 0 Z " fill="#7F7F7F" transform="translate(515,250)"/>
<path d="M0 0 C0.66 0 1.32 0 2 0 C2.33 0.99 2.66 1.98 3 3 C3.99 3 4.98 3 6 3 C5.67 3.804375 5.34 4.60875 5 5.4375 C3.93940959 7.69681125 3.93940959 7.69681125 4 9 C4.99 10.485 4.99 10.485 6 12 C5.01 12 4.02 12 3 12 C2.67 12.66 2.34 13.32 2 14 C3.65 14.33 5.3 14.66 7 15 C7.33 15.99 7.66 16.98 8 18 C7.34 18.99 6.68 19.98 6 21 C6.80648688 24.65670531 6.80648688 24.65670531 8 28 C6.68 27.67 5.36 27.34 4 27 C4 26.34 4 25.68 4 25 C0.7 25.66 -2.6 26.32 -6 27 C-7 22 -7 22 -7 19 C-5.02 19 -3.04 19 -1 19 C-1.66 18.67 -2.32 18.34 -3 18 C-3 17.34 -3 16.68 -3 16 C-2.01 16 -1.02 16 0 16 C-0.33 15.34 -0.66 14.68 -1 14 C-1.66 14 -2.32 14 -3 14 C-3.33 12.35 -3.66 10.7 -4 9 C-4.66 9 -5.32 9 -6 9 C-6 8.34 -6 7.68 -6 7 C-4.68 6.67 -3.36 6.34 -2 6 C-2 5.34 -2 4.68 -2 4 C-1.34 4 -0.68 4 0 4 C0 2.68 0 1.36 0 0 Z " fill="#333333" transform="translate(181,300)"/>
<path d="M0 0 C0.33 0 0.66 0 1 0 C1.103125 0.928125 1.20625 1.85625 1.3125 2.8125 C1.66036896 5.98139122 1.66036896 5.98139122 3.5625 7.34375 C5 9 5 9 5.07421875 11.69921875 C4.88279297 13.17841797 4.88279297 13.17841797 4.6875 14.6875 C4.56761719 15.68136719 4.44773438 16.67523438 4.32421875 17.69921875 C4.21722656 18.45847656 4.11023438 19.21773438 4 20 C2.68 20.33 1.36 20.66 0 21 C0 20.34 0 19.68 0 19 C-0.66 18.67 -1.32 18.34 -2 18 C-1.01 18 -0.02 18 1 18 C0.67 17.01 0.34 16.02 0 15 C-1.3921875 16.0209375 -1.3921875 16.0209375 -2.8125 17.0625 C-3.864375 17.701875 -4.91625 18.34125 -6 19 C-6.99 18.67 -7.98 18.34 -9 18 C-9 17.34 -9 16.68 -9 16 C-9.66 16 -10.32 16 -11 16 C-10.67 13.36 -10.34 10.72 -10 8 C-10.66 7.67 -11.32 7.34 -12 7 C-6.25 5.875 -6.25 5.875 -4 7 C-3.67 5.68 -3.34 4.36 -3 3 C-2.67 3.66 -2.34 4.32 -2 5 C-1.34 3.35 -0.68 1.7 0 0 Z " fill="#101010" transform="translate(190,264)"/>
<path d="M0 0 C0 0.66 0 1.32 0 2 C-0.66 2 -1.32 2 -2 2 C-2 2.99 -2 3.98 -2 5 C-1.34 5.33 -0.68 5.66 0 6 C0 7.32 0 8.64 0 10 C0.33 9.34 0.66 8.68 1 8 C2.65 8 4.3 8 6 8 C6 8.66 6 9.32 6 10 C6.66 10.33 7.32 10.66 8 11 C7.34 11 6.68 11 6 11 C6 11.66 6 12.32 6 13 C3.03 14.32 0.06 15.64 -3 17 C-3 16.01 -3 15.02 -3 14 C-5.31 14 -7.62 14 -10 14 C-10 15.98 -10 17.96 -10 20 C-11.65 20 -13.3 20 -15 20 C-15 18.68 -15 17.36 -15 16 C-14.01 15.34 -13.02 14.68 -12 14 C-12 13.01 -12 12.02 -12 11 C-12.66 11 -13.32 11 -14 11 C-14.33 10.01 -14.66 9.02 -15 8 C-12.92446352 7.4465236 -11.15634036 7 -9 7 C-9 6.34 -9 5.68 -9 5 C-8.360625 4.896875 -7.72125 4.79375 -7.0625 4.6875 C-6.0415625 4.3471875 -6.0415625 4.3471875 -5 4 C-4.67 3.01 -4.34 2.02 -4 1 C-2 0 -2 0 0 0 Z " fill="#2A2A2A" transform="translate(531,331)"/>
<path d="M0 0 C2.72502965 -0.37722015 2.72502965 -0.37722015 5 -1 C4.67 0.32 4.34 1.64 4 3 C3.34 3 2.68 3 2 3 C2.66 5.64 3.32 8.28 4 11 C2.35 11.33 0.7 11.66 -1 12 C-0.67 13.65 -0.34 15.3 0 17 C-2.31 17.33 -4.62 17.66 -7 18 C-7.33 17.01 -7.66 16.02 -8 15 C-6.68 14.67 -5.36 14.34 -4 14 C-4 13.34 -4 12.68 -4 12 C-5.175625 11.7834375 -5.175625 11.7834375 -6.375 11.5625 C-9 11 -9 11 -11 10 C-10.649375 9.071875 -10.29875 8.14375 -9.9375 7.1875 C-8.67617372 4.0197047 -8.67617372 4.0197047 -10 1 C-6.10891238 -0.88995684 -4.15246854 -0.93430542 0 0 Z " fill="#0F0F0F" transform="translate(249,297)"/>
<path d="M0 0 C-0.99 0.495 -0.99 0.495 -2 1 C-1.67 1.66 -1.34 2.32 -1 3 C-0.34 3 0.32 3 1 3 C1.33 2.01 1.66 1.02 2 0 C2.66 0.99 3.32 1.98 4 3 C4 2.01 4 1.02 4 0 C4.66 0 5.32 0 6 0 C6 1.65 6 3.3 6 5 C6.66 5 7.32 5 8 5 C7.34 6.98 6.68 8.96 6 11 C7.32 11.33 8.64 11.66 10 12 C9.01 12 8.02 12 7 12 C7 12.99 7 13.98 7 15 C6.34 15 5.68 15 5 15 C5 12.69 5 10.38 5 8 C3.02 8 1.04 8 -1 8 C-1 10.64 -1 13.28 -1 16 C-1.66 15.67 -2.32 15.34 -3 15 C-3 14.34 -3 13.68 -3 13 C-3.99 12.67 -4.98 12.34 -6 12 C-5.67 10.35 -5.34 8.7 -5 7 C-5.66 7 -6.32 7 -7 7 C-7 7.99 -7 8.98 -7 10 C-7.66 10 -8.32 10 -9 10 C-9.33 7.69 -9.66 5.38 -10 3 C-10.66 4.32 -11.32 5.64 -12 7 C-12 6.34 -12 5.68 -12 5 C-12.66 5 -13.32 5 -14 5 C-14 4.01 -14 3.02 -14 2 C-8.79666866 -0.24281523 -5.65735415 -1.55577239 0 0 Z " fill="#292929" transform="translate(151,332)"/>
<path d="M0 0 C2.83022097 3.99560608 1.76210446 7.42737323 1 12 C0.01 12 -0.98 12 -2 12 C-2 12.66 -2 13.32 -2 14 C1.0745356 13.2236068 1.0745356 13.2236068 3 11 C3 21.89 3 32.78 3 44 C2.34 44 1.68 44 1 44 C1 46.64 1 49.28 1 52 C0.34 52 -0.32 52 -1 52 C-1 51.01 -1 50.02 -1 49 C-3.47266765 49.34444881 -3.47266765 49.34444881 -6 50 C-6.33 50.66 -6.66 51.32 -7 52 C-7.33 48.04 -7.66 44.08 -8 40 C-6.02 39.505 -6.02 39.505 -4 39 C-4 39.66 -4 40.32 -4 41 C-2.35 41 -0.7 41 1 41 C1.05849554 37.79174438 1.09376162 34.58362767 1.125 31.375 C1.14175781 30.47136719 1.15851563 29.56773437 1.17578125 28.63671875 C1.21201643 23.67249848 0.96444146 19.65588093 -1 15 C-1.33 15.66 -1.66 16.32 -2 17 C-2.99 16.34 -3.98 15.68 -5 15 C-4.67 14.67 -4.34 14.34 -4 14 C-3.95936168 12.33382885 -3.957279 10.66611905 -4 9 C-3.01 8.67 -2.02 8.34 -1 8 C-1.020625 7.05125 -1.04125 6.1025 -1.0625 5.125 C-1 2 -1 2 0 0 Z " fill="#4E4E4E" transform="translate(338,302)"/>
<path d="M0 0 C15.51 0 31.02 0 47 0 C47 0.33 47 0.66 47 1 C31.82 1 16.64 1 1 1 C1.08378906 7.10371094 1.16757812 13.20742188 1.25390625 19.49609375 C1.3046497 23.37434313 1.35506362 27.25259124 1.40429688 31.13085938 C1.48238818 37.27991461 1.56166621 43.42893779 1.64819336 49.57788086 C1.71791522 54.53801651 1.78216299 59.49819622 1.84269524 64.45845222 C1.86667889 66.34618748 1.89259935 68.2338992 1.92053413 70.12158012 C1.95947106 72.77559612 1.99137619 75.42961401 2.02172852 78.08374023 C2.04114754 79.24144928 2.04114754 79.24144928 2.06095886 80.42254639 C2.11136566 85.69265235 1.66140795 90.77028484 1 96 C1.66 96 2.32 96 3 96 C3 98.31 3 100.62 3 103 C2.01 103 1.02 103 0 103 C0 69.01 0 35.02 0 0 Z " fill="#4D4D4D" transform="translate(436,250)"/>
<path d="M0 0 C1.65 0 3.3 0 5 0 C4.67 0.99 4.34 1.98 4 3 C5.65 2.67 7.3 2.34 9 2 C9.33 2.99 9.66 3.98 10 5 C9 7 9 7 6 9 C5.67 9.33 5.34 9.66 5 10 C6.98 10.66 8.96 11.32 11 12 C10.34 13.98 9.68 15.96 9 18 C7.35 17.67 5.7 17.34 4 17 C4.33 16.01 4.66 15.02 5 14 C2.69 14.33 0.38 14.66 -2 15 C-2 16.32 -2 17.64 -2 19 C-2.99 19 -3.98 19 -5 19 C-4.67 18.01 -4.34 17.02 -4 16 C-4.66 15.67 -5.32 15.34 -6 15 C-5.67 13.02 -5.34 11.04 -5 9 C-4.01 9 -3.02 9 -2 9 C-2 7.68 -2 6.36 -2 5 C-1.38655243 3.31301918 -0.72904086 1.64034193 0 0 Z " fill="#161616" transform="translate(181,284)"/>
<path d="M0 0 C2.97 0.33 5.94 0.66 9 1 C9.125 5.75 9.125 5.75 8 8 C8.66 8.33 9.32 8.66 10 9 C10 9.66 10 10.32 10 11 C9.071875 11.12375 9.071875 11.12375 8.125 11.25 C5.81562433 11.81258459 5.81562433 11.81258459 4.75 14.0625 C4.5025 14.701875 4.255 15.34125 4 16 C3.67 16 3.34 16 3 16 C3 17.32 3 18.64 3 20 C1.35 20.66 -0.3 21.32 -2 22 C-2 21.34 -2 20.68 -2 20 C-2.66 20 -3.32 20 -4 20 C-4 19.01 -4 18.02 -4 17 C-2.68 16.67 -1.36 16.34 0 16 C-1.32 15.01 -2.64 14.02 -4 13 C-3.55401337 8.36173909 -3.03153398 5.55875728 0 2 C0 1.34 0 0.68 0 0 Z " fill="#181818" transform="translate(531,255)"/>
<path d="M0 0 C0.66 0 1.32 0 2 0 C1.67 1.32 1.34 2.64 1 4 C0.01 4 -0.98 4 -2 4 C-0.7625 5.423125 -0.7625 5.423125 0.5 6.875 C3 9.75 3 9.75 3 12 C5.97 12.495 5.97 12.495 9 13 C9 13.66 9 14.32 9 15 C9.66 15 10.32 15 11 15 C10.33333333 16.33333333 9.66666667 17.66666667 9 19 C8.773125 19.721875 8.54625 20.44375 8.3125 21.1875 C7 23 7 23 3.375 23.75 C1.704375 23.87375 1.704375 23.87375 0 24 C-0.33 22.68 -0.66 21.36 -1 20 C-0.34 20 0.32 20 1 20 C1 19.01 1 18.02 1 17 C0.01 17.33 -0.98 17.66 -2 18 C-3.23076923 12.58461538 -3.23076923 12.58461538 -2.0625 9.625 C-1.711875 9.08875 -1.36125 8.5525 -1 8 C-2.32 7.34 -3.64 6.68 -5 6 C-4.67 4.68 -4.34 3.36 -4 2 C-2.68 2 -1.36 2 0 2 C0 1.34 0 0.68 0 0 Z " fill="#292929" transform="translate(42,292)"/>
<path d="M0 0 C-0.33 2.64 -0.66 5.28 -1 8 C-0.34 8.33 0.32 8.66 1 9 C1 11 1 13 1 15 C1.99 15.33 2.98 15.66 4 16 C3.01 16.33 2.02 16.66 1 17 C0.34 17.99 -0.32 18.98 -1 20 C-1.99 19.67 -2.98 19.34 -4 19 C-4 18.01 -4 17.02 -4 16 C-4.556875 15.773125 -5.11375 15.54625 -5.6875 15.3125 C-8.63246684 13.64103234 -10.68156544 11.44723648 -13 9 C-12.67 8.01 -12.34 7.02 -12 6 C-10.68 6 -9.36 6 -8 6 C-8 5.01 -8 4.02 -8 3 C-5.11165997 0.89229241 -3.61537605 0 0 0 Z " fill="#191919" transform="translate(458,313)"/>
<path d="M0 0 C0.33 0 0.66 0 1 0 C1 5.61 1 11.22 1 17 C0.34 17 -0.32 17 -1 17 C-1 16.34 -1 15.68 -1 15 C-2.65 15 -4.3 15 -6 15 C-6 14.01 -6 13.02 -6 12 C-7.65 12 -9.3 12 -11 12 C-11 10.68 -11 9.36 -11 8 C-12.58409994 8.11487748 -14.16728963 8.24234508 -15.75 8.375 C-17.07257813 8.47941406 -17.07257813 8.47941406 -18.421875 8.5859375 C-20.99066382 8.99850055 -22.75841015 9.71160957 -25 11 C-24.67 9.02 -24.34 7.04 -24 5 C-23.01 5 -22.02 5 -21 5 C-21 4.34 -21 3.68 -21 3 C-20.01 2.67 -19.02 2.34 -18 2 C-18 2.99 -18 3.98 -18 5 C-15.69 5.66 -13.38 6.32 -11 7 C-10.67 6.34 -10.34 5.68 -10 5 C-7.9375 3.875 -7.9375 3.875 -6 3 C-5.67 3.99 -5.34 4.98 -5 6 C-4.34 6 -3.68 6 -3 6 C-2.67 7.65 -2.34 9.3 -2 11 C-1.34 11 -0.68 11 0 11 C0 7.37 0 3.74 0 0 Z " fill="#191919" transform="translate(462,335)"/>
<path d="M0 0 C0.66 0.33 1.32 0.66 2 1 C1.67 1.66 1.34 2.32 1 3 C2.32 2.67 3.64 2.34 5 2 C5 2.66 5 3.32 5 4 C3.07335866 5.60553445 1.24366996 6.87816502 -1 8 C-0.6596875 9.1446875 -0.6596875 9.1446875 -0.3125 10.3125 C-0.209375 11.199375 -0.10625 12.08625 0 13 C-1.4375 14.8125 -1.4375 14.8125 -3 16 C-2.67 16.99 -2.34 17.98 -2 19 C-3.2375 18.95875 -4.475 18.9175 -5.75 18.875 C-9.01637962 18.86341709 -11.2146947 19.1431298 -14 21 C-13.505 20.443125 -13.01 19.88625 -12.5 19.3125 C-10.75245633 16.61837017 -10.73781251 15.14624993 -11 12 C-9.35 11.67 -7.7 11.34 -6 11 C-6 9.68 -6 8.36 -6 7 C-6.66 7 -7.32 7 -8 7 C-7.9375 5.1875 -7.9375 5.1875 -7 3 C-3.5625 1.1875 -3.5625 1.1875 0 0 Z " fill="#474747" transform="translate(479,292)"/>
<path d="M0 0 C3.3 0 6.6 0 10 0 C6 3 6 3 2 3 C2 7.29 2 11.58 2 16 C2.66 16 3.32 16 4 16 C3.979375 16.804375 3.95875 17.60875 3.9375 18.4375 C3.70366379 20.93354885 3.70366379 20.93354885 5 22 C4.979375 20.906875 4.95875 19.81375 4.9375 18.6875 C5 15 5 15 6 12 C6.66 12 7.32 12 8 12 C8 12.99 8 13.98 8 15 C8.66 15 9.32 15 10 15 C9.67 16.98 9.34 18.96 9 21 C9.66 20.67 10.32 20.34 11 20 C9.99347455 23.01957634 9.18410565 24.82130922 6.875 27.0625 C4.53638571 29.02970029 4.53638571 29.02970029 5 33 C4.34 33 3.68 33 3 33 C3 31.35 3 29.7 3 28 C2.34 27.67 1.68 27.34 1 27 C0.67 18.09 0.34 9.18 0 0 Z " fill="#FEB13D" transform="translate(392,322)"/>
<path d="M0 0 C2.97 0 5.94 0 9 0 C9 1.32 9 2.64 9 4 C9.66 4 10.32 4 11 4 C11.66 5.65 12.32 7.3 13 9 C11.02 9 9.04 9 7 9 C6.67 9.66 6.34 10.32 6 11 C9.3 11 12.6 11 16 11 C16 11.33 16 11.66 16 12 C7.42 12 -1.16 12 -10 12 C-10 11.67 -10 11.34 -10 11 C-6.04 11 -2.08 11 2 11 C2 10.01 2 9.02 2 8 C1.01 8 0.02 8 -1 8 C-1.625 6.25 -1.625 6.25 -2 4 C-1.34 2.68 -0.68 1.36 0 0 Z " fill="#3B3B3B" transform="translate(552,302)"/>
<path d="M0 0 C0.33 0.99 0.66 1.98 1 3 C2.32 3 3.64 3 5 3 C5.33 4.32 5.66 5.64 6 7 C5.34 7 4.68 7 4 7 C2.8509288 8.9254644 2.8509288 8.9254644 3 11 C3 11.66 3 12.32 3 13 C2.01 13.495 2.01 13.495 1 14 C1 14.66 1 15.32 1 16 C0.34 16 -0.32 16 -1 16 C-1 15.34 -1 14.68 -1 14 C-1.66 14 -2.32 14 -3 14 C-3 13.34 -3 12.68 -3 12 C-3.99 12.33 -4.98 12.66 -6 13 C-5.67 11.35 -5.34 9.7 -5 8 C-6.32 8 -7.64 8 -9 8 C-9.33 6.35 -9.66 4.7 -10 3 C-8.02 3 -6.04 3 -4 3 C-4 2.34 -4 1.68 -4 1 C-2.68 0.67 -1.36 0.34 0 0 Z " fill="#141414" transform="translate(249,271)"/>
<path d="M0 0 C0.33 0 0.66 0 1 0 C1 4.95 1 9.9 1 15 C3.05270463 13.15811388 3.05270463 13.15811388 4 11 C5.32 11 6.64 11 8 11 C8 12.32 8 13.64 8 15 C7.01 15.33 6.02 15.66 5 16 C5.66 16.33 6.32 16.66 7 17 C7 18.32 7 19.64 7 21 C7.66 21 8.32 21 9 21 C9 19.35 9 17.7 9 16 C10.32 16.33 11.64 16.66 13 17 C13 19 13 21 13 23 C14.94818168 29.14257426 14.94818168 29.14257426 19 34 C15.42150008 33.70179167 14.23773516 33.25754642 11.75 30.5625 C9.96359796 27.94669702 9.00258861 26.00776582 8 23 C7.34 23 6.68 23 6 23 C6 21.35 6 19.7 6 18 C5.38125 18.495 4.7625 18.99 4.125 19.5 C2 21 2 21 0 21 C0 14.07 0 7.14 0 0 Z " fill="#FEB23E" transform="translate(393,254)"/>
<path d="M0 0 C1.258125 -0.020625 2.51625 -0.04125 3.8125 -0.0625 C4.52019531 -0.07410156 5.22789062 -0.08570313 5.95703125 -0.09765625 C8 0 8 0 11 1 C11 1.66 11 2.32 11 3 C11.66 3 12.32 3 13 3 C13.33 4.32 13.66 5.64 14 7 C13.01 7 12.02 7 11 7 C11 8.32 11 9.64 11 11 C10.34 11 9.68 11 9 11 C8.67 9.02 8.34 7.04 8 5 C7.34 5.66 6.68 6.32 6 7 C6.66 8.65 7.32 10.3 8 12 C5.36 11.34 2.72 10.68 0 10 C0.33 8.68 0.66 7.36 1 6 C0.34 6 -0.32 6 -1 6 C-0.67 4.02 -0.34 2.04 0 0 Z " fill="#303030" transform="translate(454,301)"/>
<path d="M0 0 C0.99 0.33 1.98 0.66 3 1 C2.67 1.66 2.34 2.32 2 3 C3.32 2.67 4.64 2.34 6 2 C5.814375 2.61875 5.62875 3.2375 5.4375 3.875 C4.76313824 6.04160178 4.76313824 6.04160178 6 8 C6.66 8.33 7.32 8.66 8 9 C8 9.99 8 10.98 8 12 C8.94978897 14.15028304 8.94978897 14.15028304 10 16 C10.33 15.01 10.66 14.02 11 13 C11.99 13.66 12.98 14.32 14 15 C13.67 15.66 13.34 16.32 13 17 C12.34 16.67 11.68 16.34 11 16 C11 16.66 11 17.32 11 18 C9.35 18.33 7.7 18.66 6 19 C5.03697644 17.44038638 4.07978996 15.87716775 3.125 14.3125 C2.59132813 13.44238281 2.05765625 12.57226562 1.5078125 11.67578125 C0 9 0 9 -1.0703125 6.23046875 C-1.78315493 3.83612014 -1.78315493 3.83612014 -4 3 C-3.01 3 -2.02 3 -1 3 C-0.67 2.01 -0.34 1.02 0 0 Z " fill="#1C1C1C" transform="translate(123,310)"/>
<path d="M0 0 C0.66 0.33 1.32 0.66 2 1 C2.4140625 3.06640625 2.4140625 3.06640625 2.625 5.5625 C2.69976562 6.38878906 2.77453125 7.21507812 2.8515625 8.06640625 C2.90054688 8.70449219 2.94953125 9.34257812 3 10 C3.99 9.67 4.98 9.34 6 9 C6 9.66 6 10.32 6 11 C4.35 11 2.7 11 1 11 C1 12.98 1 14.96 1 17 C-0.98 17 -2.96 17 -5 17 C-4.93976506 14.91587093 -4.85091679 12.83255565 -4.75 10.75 C-4.70359375 9.58984375 -4.6571875 8.4296875 -4.609375 7.234375 C-3.91208725 3.53338618 -2.88214816 2.32877571 0 0 Z " fill="#0B0B0B" transform="translate(238,334)"/>
<path d="M0 0 C0.66 0.33 1.32 0.66 2 1 C2 1.66 2 2.32 2 3 C2.66 3 3.32 3 4 3 C4.66 4.65 5.32 6.3 6 8 C5.34 8 4.68 8 4 8 C3.91087781 11.83225427 4.12132271 15.26562152 5 19 C4.01 19 3.02 19 2 19 C2.33 19.99 2.66 20.98 3 22 C2.01 21.67 1.02 21.34 0 21 C0.33 19.02 0.66 17.04 1 15 C-0.65 14.67 -2.3 14.34 -4 14 C-4 13.34 -4 12.68 -4 12 C-3.01 12 -2.02 12 -1 12 C-0.67 9.69 -0.34 7.38 0 5 C-1.32 5.33 -2.64 5.66 -4 6 C-4.33 5.01 -4.66 4.02 -5 3 C-3.35 3 -1.7 3 0 3 C0 2.01 0 1.02 0 0 Z " fill="#323232" transform="translate(534,314)"/>
<path d="M0 0 C9.24 0 18.48 0 28 0 C28 3.63 28 7.26 28 11 C27.67 9.68 27.34 8.36 27 7 C25.741875 7.103125 24.48375 7.20625 23.1875 7.3125 C21.04296875 7.48828125 21.04296875 7.48828125 19 7 C18.5875 6.1853125 18.175 5.370625 17.75 4.53125 C16.13850596 1.56503912 16.13850596 1.56503912 12.20703125 1.29296875 C10.74297921 1.23334672 9.2777203 1.19901702 7.8125 1.1875 C7.06291016 1.16236328 6.31332031 1.13722656 5.54101562 1.11132812 C3.69457379 1.05252424 1.84722998 1.02338266 0 1 C0 0.67 0 0.34 0 0 Z " fill="#383838" transform="translate(542,331)"/>
<path d="M0 0 C2 1 2 1 3.125 2.9375 C5.96598684 6.06258553 8.90402293 6.19423402 13 7 C13 6.34 13 5.68 13 5 C13.66 5.33 14.32 5.66 15 6 C14.67 7.65 14.34 9.3 14 11 C13.34 11 12.68 11 12 11 C12 10.34 12 9.68 12 9 C9.69 9 7.38 9 5 9 C5 9.99 5 10.98 5 12 C3.35 12 1.7 12 0 12 C-0.33 9.69 -0.66 7.38 -1 5 C-2.65 5 -4.3 5 -6 5 C-5.34 4.01 -4.68 3.02 -4 2 C-4 2.66 -4 3.32 -4 4 C-3.01 3.67 -2.02 3.34 -1 3 C-0.67 2.01 -0.34 1.02 0 0 Z " fill="#282828" transform="translate(258,339)"/>
<path d="M0 0 C2.97 0.495 2.97 0.495 6 1 C6.33 2.65 6.66 4.3 7 6 C6.01 6.33 5.02 6.66 4 7 C4.99 7.66 5.98 8.32 7 9 C7 9.66 7 10.32 7 11 C5.35 11.33 3.7 11.66 2 12 C2.33 13.32 2.66 14.64 3 16 C-0.75 17.125 -0.75 17.125 -3 16 C-3 14.68 -3 13.36 -3 12 C-2.34 12 -1.68 12 -1 12 C-1.20625 11.38125 -1.4125 10.7625 -1.625 10.125 C-1.74875 9.42375 -1.8725 8.7225 -2 8 C-1.34 7.34 -0.68 6.68 0 6 C0.33 6.33 0.66 6.66 1 7 C1.33 6.34 1.66 5.68 2 5 C1.34 5 0.68 5 0 5 C0 3.35 0 1.7 0 0 Z " fill="#3A3A3A" transform="translate(519,262)"/>
<path d="M0 0 C0.66 0 1.32 0 2 0 C2.33 0.99 2.66 1.98 3 3 C3.99 3 4.98 3 6 3 C5.67 3.804375 5.34 4.60875 5 5.4375 C3.93940959 7.69681125 3.93940959 7.69681125 4 9 C4.99 10.485 4.99 10.485 6 12 C5.01 12 4.02 12 3 12 C2.01 13.485 2.01 13.485 1 15 C-0.32 14.67 -1.64 14.34 -3 14 C-3.33 12.35 -3.66 10.7 -4 9 C-4.66 9 -5.32 9 -6 9 C-6 8.34 -6 7.68 -6 7 C-4.68 6.67 -3.36 6.34 -2 6 C-2 5.34 -2 4.68 -2 4 C-1.34 4 -0.68 4 0 4 C0 2.68 0 1.36 0 0 Z " fill="#353535" transform="translate(181,300)"/>
<path d="M0 0 C0.33 1.32 0.66 2.64 1 4 C1.66 4 2.32 4 3 4 C3 3.34 3 2.68 3 2 C3.66 2 4.32 2 5 2 C5.5625 3.9375 5.5625 3.9375 6 6 C5.67 6.33 5.34 6.66 5 7 C4.92851801 8.35243917 4.91600546 9.70834367 4.9375 11.0625 C4.958125 12.361875 4.97875 13.66125 5 15 C3.35 15 1.7 15 0 15 C0 14.01 0 13.02 0 12 C0.99 11.67 1.98 11.34 3 11 C1.68 10.67 0.36 10.34 -1 10 C-1 10.66 -1 11.32 -1 12 C-1.66 12 -2.32 12 -3 12 C-3 10.02 -3 8.04 -3 6 C-4.65 6 -6.3 6 -8 6 C-7.67 5.34 -7.34 4.68 -7 4 C-5.02 4 -3.04 4 -1 4 C-0.67 2.68 -0.34 1.36 0 0 Z " fill="#2F2F2F" transform="translate(546,333)"/>
<path d="M0 0 C0.99 0 1.98 0 3 0 C2.67 1.32 2.34 2.64 2 4 C2.99 4.33 3.98 4.66 5 5 C5.6875 7.0625 5.6875 7.0625 6 9 C4.35 9.33 2.7 9.66 1 10 C1.33 11.65 1.66 13.3 2 15 C-0.31 15.33 -2.62 15.66 -5 16 C-5.33 15.01 -5.66 14.02 -6 13 C-4.68 12.67 -3.36 12.34 -2 12 C-2.33 10.68 -2.66 9.36 -3 8 C-2.34 8 -1.68 8 -1 8 C-1.20625 7.05125 -1.4125 6.1025 -1.625 5.125 C-1.74875 4.09375 -1.8725 3.0625 -2 2 C-1.34 1.34 -0.68 0.68 0 0 Z " fill="#272727" transform="translate(247,299)"/>
<path d="M0 0 C3.3 0 6.6 0 10 0 C10 0.99 10 1.98 10 3 C9.34 3 8.68 3 8 3 C8 3.66 8 4.32 8 5 C8.99 4.67 9.98 4.34 11 4 C10.67 4.99 10.34 5.98 10 7 C9.34 7 8.68 7 8 7 C8 8.32 8 9.64 8 11 C6.68 10.67 5.36 10.34 4 10 C4 9.01 4 8.02 4 7 C2.68 7.33 1.36 7.66 0 8 C-0.33 7.01 -0.66 6.02 -1 5 C-0.01 4.34 0.98 3.68 2 3 C1.34 2.01 0.68 1.02 0 0 Z " fill="#080808" transform="translate(326,318)"/>
<path d="M0 0 C2.97 0.495 2.97 0.495 6 1 C6 1.66 6 2.32 6 3 C6.66 3.33 7.32 3.66 8 4 C7.34 4 6.68 4 6 4 C6 4.99 6 5.98 6 7 C6.66 7 7.32 7 8 7 C8 6.34 8 5.68 8 5 C8.99 4.67 9.98 4.34 11 4 C11.99 5.485 11.99 5.485 13 7 C11.68 7 10.36 7 9 7 C8.67 8.98 8.34 10.96 8 13 C6.35 13 4.7 13 3 13 C3 10.69 3 8.38 3 6 C2.01 6 1.02 6 0 6 C0 4.02 0 2.04 0 0 Z " fill="#1B1B1B" transform="translate(537,338)"/>
<path d="M0 0 C0.66 0 1.32 0 2 0 C1.67 1.32 1.34 2.64 1 4 C0.01 4 -0.98 4 -2 4 C-1.195625 4.845625 -0.39125 5.69125 0.4375 6.5625 C3.21628662 9.8515158 3.74117776 12.68629604 4 17 C2.02 17.33 0.04 17.66 -2 18 C-3.23076923 12.58461538 -3.23076923 12.58461538 -2.0625 9.625 C-1.711875 9.08875 -1.36125 8.5525 -1 8 C-2.32 7.34 -3.64 6.68 -5 6 C-4.67 4.68 -4.34 3.36 -4 2 C-2.68 2 -1.36 2 0 2 C0 1.34 0 0.68 0 0 Z " fill="#353535" transform="translate(42,292)"/>
<path d="M0 0 C0.66 0.33 1.32 0.66 2 1 C2 2.32 2 3.64 2 5 C2.33 4.34 2.66 3.68 3 3 C4.65 3 6.3 3 8 3 C8 3.66 8 4.32 8 5 C8.66 5.33 9.32 5.66 10 6 C9.34 6 8.68 6 8 6 C8 6.66 8 7.32 8 8 C5.03 9.32 2.06 10.64 -1 12 C-1 11.01 -1 10.02 -1 9 C-2.65 9 -4.3 9 -6 9 C-5.505 8.5875 -5.01 8.175 -4.5 7.75 C-2.56613908 5.87797662 -2.56613908 5.87797662 -3 2 C-2.34 2 -1.68 2 -1 2 C-0.67 1.34 -0.34 0.68 0 0 Z " fill="#3B3B3B" transform="translate(529,336)"/>
<path d="M0 0 C0.66 1.98 1.32 3.96 2 6 C9.59 6 17.18 6 25 6 C25 6.33 25 6.66 25 7 C15.43 7 5.86 7 -4 7 C-4.33 7.99 -4.66 8.98 -5 10 C-5.33 9.01 -5.66 8.02 -6 7 C-6.66 6.67 -7.32 6.34 -8 6 C-8 5.34 -8 4.68 -8 4 C-7.34 4 -6.68 4 -6 4 C-5.67 3.01 -5.34 2.02 -5 1 C-3 0 -3 0 0 0 Z " fill="#626262" transform="translate(60,307)"/>
<path d="M0 0 C0 0.66 0 1.32 0 2 C1.32 1.67 2.64 1.34 4 1 C4 1.66 4 2.32 4 3 C2.02 3.99 2.02 3.99 0 5 C0 5.66 0 6.32 0 7 C-0.66 7 -1.32 7 -2 7 C-2.33 8.32 -2.66 9.64 -3 11 C-2.01 11.33 -1.02 11.66 0 12 C-0.33 12.66 -0.66 13.32 -1 14 C-2.32 13.67 -3.64 13.34 -5 13 C-5 12.34 -5 11.68 -5 11 C-5.99 11.33 -6.98 11.66 -8 12 C-8 10.35 -8 8.7 -8 7 C-7.01 6.67 -6.02 6.34 -5 6 C-5.66 5.67 -6.32 5.34 -7 5 C-6.67 3.68 -6.34 2.36 -6 1 C-3.92446352 0.4465236 -2.15634036 0 0 0 Z " fill="#333333" transform="translate(528,303)"/>
<path d="M0 0 C1.98 0 3.96 0 6 0 C6 3.96 6 7.92 6 12 C5.67 10.68 5.34 9.36 5 8 C3.35 8.33 1.7 8.66 0 9 C-0.33 7.68 -0.66 6.36 -1 5 C-2.98 5.99 -2.98 5.99 -5 7 C-4.67 5.68 -4.34 4.36 -4 3 C-2.68 2.67 -1.36 2.34 0 2 C0 1.34 0 0.68 0 0 Z " fill="#1E1E1E" transform="translate(113,319)"/>
<path d="M0 0 C0 0.66 0 1.32 0 2 C1.65 2 3.3 2 5 2 C4.67 4.64 4.34 7.28 4 10 C3.030625 10.12375 2.06125 10.2475 1.0625 10.375 C0.051875 10.58125 -0.95875 10.7875 -2 11 C-2.33 11.66 -2.66 12.32 -3 13 C-3.33 9.04 -3.66 5.08 -4 1 C-2 0 -2 0 0 0 Z " fill="#202020" transform="translate(334,341)"/>
<path d="M0 0 C0.99 0 1.98 0 3 0 C3.33 1.32 3.66 2.64 4 4 C2.02 4.66 0.04 5.32 -2 6 C-1.01 6 -0.02 6 1 6 C1.33 8.31 1.66 10.62 2 13 C0.35 13.33 -1.3 13.66 -3 14 C-3 13.34 -3 12.68 -3 12 C-2.34 12 -1.68 12 -1 12 C-1 11.34 -1 10.68 -1 10 C-1.66 10 -2.32 10 -3 10 C-3 9.01 -3 8.02 -3 7 C-4.98 7 -6.96 7 -9 7 C-8.67 5.68 -8.34 4.36 -8 3 C-5.69 3 -3.38 3 -1 3 C-0.67 2.01 -0.34 1.02 0 0 Z " fill="#232323" transform="translate(182,328)"/>
<path d="M0 0 C0.33 0.33 0.66 0.66 1 1 C2.65948148 2.01187895 4.32580562 3.0126546 6 4 C6 3.34 6 2.68 6 2 C6.99 2 7.98 2 9 2 C9.33 1.34 9.66 0.68 10 0 C10.66 1.98 11.32 3.96 12 6 C8.31109101 7.22963633 4.86300794 7.55670401 1 8 C1 7.01 1 6.02 1 5 C-0.32 5 -1.64 5 -3 5 C-3 4.34 -3 3.68 -3 3 C-3.66 3 -4.32 3 -5 3 C-5 2.34 -5 1.68 -5 1 C-2 0 -2 0 0 0 Z " fill="#2F2F2F" transform="translate(202,300)"/>
<path d="M0 0 C5.625 -0.25 5.625 -0.25 9 2 C9.1875 4.625 9.1875 4.625 9 7 C8.01 7 7.02 7 6 7 C6 6.34 6 5.68 6 5 C5.34 5 4.68 5 4 5 C3.67 7.31 3.34 9.62 3 12 C2.01 11.67 1.02 11.34 0 11 C-0.19491452 9.54263913 -0.38069358 8.08405407 -0.5625 6.625 C-0.66691406 5.81289063 -0.77132812 5.00078125 -0.87890625 4.1640625 C-1 2 -1 2 0 0 Z " fill="#0F0F0F" transform="translate(551,337)"/>
<path d="M0 0 C2.6815279 3.07692746 3.42087807 5.19734663 3.6875 9.25 C3.75324219 10.14203125 3.81898438 11.0340625 3.88671875 11.953125 C3.92410156 12.62859375 3.96148437 13.3040625 4 14 C2.02 14 0.04 14 -2 14 C-2 10.37 -2 6.74 -2 3 C-1.34 3 -0.68 3 0 3 C0 2.01 0 1.02 0 0 Z " fill="#353535" transform="translate(174,337)"/>
<path d="M0 0 C1.231394 3.69418201 0.64432764 6.2056261 0 10 C-1.32 10.33 -2.64 10.66 -4 11 C-4 10.34 -4 9.68 -4 9 C-4.66 8.67 -5.32 8.34 -6 8 C-5.01 8 -4.02 8 -3 8 C-3.33 7.01 -3.66 6.02 -4 5 C-4.78375 5.185625 -5.5675 5.37125 -6.375 5.5625 C-9 6 -9 6 -11 5 C-9 2 -9 2 -6.8359375 1.26953125 C-6.02382812 1.11871094 -5.21171875 0.96789062 -4.375 0.8125 C-3.55773437 0.65394531 -2.74046875 0.49539063 -1.8984375 0.33203125 C-1.27195313 0.22246094 -0.64546875 0.11289062 0 0 Z " fill="#757575" transform="translate(194,274)"/>
<path d="M0 0 C0.33 0 0.66 0 1 0 C1 4.95 1 9.9 1 15 C3.05270463 13.15811388 3.05270463 13.15811388 4 11 C5.32 11 6.64 11 8 11 C8 12.32 8 13.64 8 15 C7.01 15.33 6.02 15.66 5 16 C5.66 16.33 6.32 16.66 7 17 C7 18.98 7 20.96 7 23 C6.67 23 6.34 23 6 23 C6 21.35 6 19.7 6 18 C5.38125 18.495 4.7625 18.99 4.125 19.5 C2 21 2 21 0 21 C0 14.07 0 7.14 0 0 Z " fill="#FEC268" transform="translate(393,254)"/>
<path d="M0 0 C-0.99 0.495 -0.99 0.495 -2 1 C-1.67 2.32 -1.34 3.64 -1 5 C-3.31 4.67 -5.62 4.34 -8 4 C-7.67 5.98 -7.34 7.96 -7 10 C-7.66 10 -8.32 10 -9 10 C-9.33 7.69 -9.66 5.38 -10 3 C-10.66 4.32 -11.32 5.64 -12 7 C-12 6.34 -12 5.68 -12 5 C-12.66 5 -13.32 5 -14 5 C-14 4.01 -14 3.02 -14 2 C-8.79666866 -0.24281523 -5.65735415 -1.55577239 0 0 Z " fill="#646464" transform="translate(151,332)"/>
<path d="M0 0 C0.66 0.33 1.32 0.66 2 1 C1.67 1.66 1.34 2.32 1 3 C2.32 2.67 3.64 2.34 5 2 C5 2.66 5 3.32 5 4 C3.07335866 5.60553445 1.24366996 6.87816502 -1 8 C-1.33 8.66 -1.66 9.32 -2 10 C-3.32 10 -4.64 10 -6 10 C-6 9.01 -6 8.02 -6 7 C-6.66 7 -7.32 7 -8 7 C-7.9375 5.1875 -7.9375 5.1875 -7 3 C-3.5625 1.1875 -3.5625 1.1875 0 0 Z " fill="#313131" transform="translate(479,292)"/>
<path d="M0 0 C1.32 0 2.64 0 4 0 C4.04254356 1.99954746 4.04080783 4.00041636 4 6 C3.67 6.33 3.34 6.66 3 7 C3.66 7.33 4.32 7.66 5 8 C5.59765625 9.77734375 5.59765625 9.77734375 6.0625 11.9375 C6.55309711 14.17154137 6.97397802 15.94795605 8 18 C4.92346162 16.97448721 4.19203004 16.19203004 2 14 C1.01 13.67 0.02 13.34 -1 13 C-1.33 12.01 -1.66 11.02 -2 10 C-1.34 10 -0.68 10 0 10 C-0.0309375 8.8553125 -0.0309375 8.8553125 -0.0625 7.6875 C0 5 0 5 1 2 C0.67 1.34 0.34 0.68 0 0 Z " fill="#3D3D3D" transform="translate(522,278)"/>
<path d="M0 0 C0.33 0 0.66 0 1 0 C1 7.92 1 15.84 1 24 C0.01 23.67 -0.98 23.34 -2 23 C-2 17.39 -2 11.78 -2 6 C-1.67 6 -1.34 6 -1 6 C-0.67 4.02 -0.34 2.04 0 0 Z " fill="#FEC165" transform="translate(404,343)"/>
<path d="M0 0 C-0.33 0.66 -0.66 1.32 -1 2 C-1.99 1.67 -2.98 1.34 -4 1 C-4 1.66 -4 2.32 -4 3 C-3.01 3.33 -2.02 3.66 -1 4 C-1.33 5.32 -1.66 6.64 -2 8 C-0.68 8.66 0.64 9.32 2 10 C0.02 10.66 -1.96 11.32 -4 12 C-4.33 11.01 -4.66 10.02 -5 9 C-5.66 9 -6.32 9 -7 9 C-6.67 6.36 -6.34 3.72 -6 1 C-6.66 0.67 -7.32 0.34 -8 0 C-4.94736336 -0.98120464 -3.05263664 -0.98120464 0 0 Z " fill="#242424" transform="translate(186,271)"/>
<path d="M0 0 C0.33 0.66 0.66 1.32 1 2 C2.65 1.34 4.3 0.68 6 0 C6 0.66 6 1.32 6 2 C6.66 2 7.32 2 8 2 C7.67 2.66 7.34 3.32 7 4 C4.4375 4.625 4.4375 4.625 2 5 C2 5.99 2 6.98 2 8 C2.66 8 3.32 8 4 8 C4.33 9.65 4.66 11.3 5 13 C3.68 12.34 2.36 11.68 1 11 C1 10.01 1 9.02 1 8 C0.34 8 -0.32 8 -1 8 C-2.2077558 4.37673261 -1.54311128 3.35853631 0 0 Z " fill="#1F1F1F" transform="translate(135,329)"/>
<path d="M0 0 C3.3 0 6.6 0 10 0 C6 3 6 3 2 3 C2 7.29 2 11.58 2 16 C2.66 16 3.32 16 4 16 C4 16.66 4 17.32 4 18 C3.34 18 2.68 18 2 18 C2.25561323 20.3431213 2.59270772 22.67843403 3 25 C3.66 25.33 4.32 25.66 5 26 C3.68 26.33 2.36 26.66 1 27 C0.67 18.09 0.34 9.18 0 0 Z " fill="#FED89E" transform="translate(392,322)"/>
<path d="M0 0 C2.97 0 5.94 0 9 0 C9 1.32 9 2.64 9 4 C9.66 4 10.32 4 11 4 C11.66 5.65 12.32 7.3 13 9 C11.02 9 9.04 9 7 9 C7 7.68 7 6.36 7 5 C4.36 4.34 1.72 3.68 -1 3 C-0.67 2.01 -0.34 1.02 0 0 Z " fill="#212121" transform="translate(552,302)"/>
<path d="M0 0 C0.33 0 0.66 0 1 0 C1 10.56 1 21.12 1 32 C0.34 32 -0.32 32 -1 32 C-1 34.97 -1 37.94 -1 41 C-1.66 40.67 -2.32 40.34 -3 40 C-3 36.7 -3 33.4 -3 30 C-2.34 30 -1.68 30 -1 30 C-1.00523682 29.19780029 -1.01047363 28.39560059 -1.01586914 27.5690918 C-1.03662897 23.94190247 -1.04965702 20.31472563 -1.0625 16.6875 C-1.07087891 15.42486328 -1.07925781 14.16222656 -1.08789062 12.86132812 C-1.09111328 11.65283203 -1.09433594 10.44433594 -1.09765625 9.19921875 C-1.10289307 8.08377686 -1.10812988 6.96833496 -1.11352539 5.8190918 C-1 3 -1 3 0 0 Z " fill="#7B7B7B" transform="translate(56,314)"/>
<path d="M0 0 C2.97 0 5.94 0 9 0 C7.49336217 3.01327566 4.96833589 3.61056618 2 5 C2 5.99 2 6.98 2 8 C0.35 8.66 -1.3 9.32 -3 10 C-3.33 8.68 -3.66 7.36 -4 6 C-3.34 5.67 -2.68 5.34 -2 5 C-1.27840576 3.35636866 -0.60648579 1.68949614 0 0 Z " fill="#FEBE5C" transform="translate(404,295)"/>
<path d="M0 0 C1.65 0.33 3.3 0.66 5 1 C4.38722388 3.96175123 3.74627478 5.38058783 2 8 C1.34 8 0.68 8 0 8 C0 7.34 0 6.68 0 6 C-1.98 6.99 -1.98 6.99 -4 8 C-4.66 7.34 -5.32 6.68 -6 6 C-6 5.34 -6 4.68 -6 4 C-4.02 3.67 -2.04 3.34 0 3 C0 2.01 0 1.02 0 0 Z " fill="#121212" transform="translate(528,297)"/>
<path d="M0 0 C0 0.99 0 1.98 0 3 C-0.969375 3.268125 -1.93875 3.53625 -2.9375 3.8125 C-3.948125 4.204375 -4.95875 4.59625 -6 5 C-6.33 5.99 -6.66 6.98 -7 8 C-6.34 8.33 -5.68 8.66 -5 9 C-5 9.66 -5 10.32 -5 11 C-6.65 11.33 -8.3 11.66 -10 12 C-9.67 8.37 -9.34 4.74 -9 1 C-5.8035914 -0.06546953 -3.34252724 -0.07427838 0 0 Z " fill="#5F5F5F" transform="translate(256,286)"/>
<path d="M0 0 C1.98 0 3.96 0 6 0 C6 0.66 6 1.32 6 2 C6.66 2 7.32 2 8 2 C8.33 3.98 8.66 5.96 9 8 C7.35 7.67 5.7 7.34 4 7 C4 6.01 4 5.02 4 4 C3.34 4 2.68 4 2 4 C2 4.99 2 5.98 2 7 C1.34 7 0.68 7 0 7 C0 4.69 0 2.38 0 0 Z " fill="#1B1B1B" transform="translate(30,324)"/>
<path d="M0 0 C0.66 0 1.32 0 2 0 C2.66 0.66 3.32 1.32 4 2 C4.33 2 4.66 2 5 2 C5 5.3 5 8.6 5 12 C4.01 12.33 3.02 12.66 2 13 C1.46605821 11.5882217 0.94834896 10.17029756 0.4375 8.75 C0.14746094 7.96109375 -0.14257812 7.1721875 -0.44140625 6.359375 C-1.04522837 3.80896548 -0.8473932 2.44677771 0 0 Z " fill="#050505" transform="translate(457,315)"/>
<path d="M0 0 C2.875 -0.125 2.875 -0.125 6 0 C6.66 0.66 7.32 1.32 8 2 C7.75558954 4.52557477 7.17639341 5.7852602 5.5625 7.75 C4 9 4 9 2 9 C2 8.01 2 7.02 2 6 C1.01 6.495 1.01 6.495 0 7 C0 4.69 0 2.38 0 0 Z " fill="#111111" transform="translate(516,278)"/>
<path d="M0 0 C1.32 0.66 2.64 1.32 4 2 C4 4.64 4 7.28 4 10 C3.34 10 2.68 10 2 10 C2 9.34 2 8.68 2 8 C0.68 8 -0.64 8 -2 8 C-2.6875 6.25 -2.6875 6.25 -3 4 C-1.5625 1.75 -1.5625 1.75 0 0 Z " fill="#171717" transform="translate(115,342)"/>
<path d="M0 0 C0.66 0.33 1.32 0.66 2 1 C2 1.66 2 2.32 2 3 C2.66 3 3.32 3 4 3 C4.66 4.65 5.32 6.3 6 8 C5.34 8 4.68 8 4 8 C3.67 9.32 3.34 10.64 3 12 C3 11.34 3 10.68 3 10 C2.34 10 1.68 10 1 10 C2 8 2 8 3 7 C2.01 7 1.02 7 0 7 C0 6.34 0 5.68 0 5 C-1.32 5.33 -2.64 5.66 -4 6 C-4.33 5.01 -4.66 4.02 -5 3 C-3.35 3 -1.7 3 0 3 C0 2.01 0 1.02 0 0 Z " fill="#1F1F1F" transform="translate(534,314)"/>
<path d="M0 0 C0.66 0 1.32 0 2 0 C2 1.65 2 3.3 2 5 C2.99 4.67 3.98 4.34 5 4 C5 4.66 5 5.32 5 6 C3.35 6 1.7 6 0 6 C0 7.98 0 9.96 0 12 C-1.98 12 -3.96 12 -6 12 C-5.34 10.35 -4.68 8.7 -4 7 C-3.34 7.33 -2.68 7.66 -2 8 C-1.7834375 6.576875 -1.7834375 6.576875 -1.5625 5.125 C-1 2 -1 2 0 0 Z " fill="#1E1E1E" transform="translate(239,339)"/>
<path d="M0 0 C0.33 0 0.66 0 1 0 C1.33 5.61 1.66 11.22 2 17 C2.66 17 3.32 17 4 17 C4.33 18.32 4.66 19.64 5 21 C3.68 21.33 2.36 21.66 1 22 C0.67 23.32 0.34 24.64 0 26 C0 17.42 0 8.84 0 0 Z " fill="#BDBDBD" transform="translate(515,325)"/>
<path d="M0 0 C0.66 0 1.32 0 2 0 C2 0.66 2 1.32 2 2 C3.32 1.67 4.64 1.34 6 1 C6.33 1.99 6.66 2.98 7 4 C8.63044124 5.65637688 8.63044124 5.65637688 10.5625 7.1875 C11.20316406 7.71730469 11.84382813 8.24710937 12.50390625 8.79296875 C12.99761719 9.19128906 13.49132812 9.58960938 14 10 C13.01 10.495 13.01 10.495 12 11 C11.4225 10.360625 10.845 9.72125 10.25 9.0625 C7.11759533 6.19112905 5.16207365 6 1 6 C0.67 4.02 0.34 2.04 0 0 Z " fill="#3A3A3A" transform="translate(324,324)"/>
<path d="M0 0 C1.6875 1.4375 1.6875 1.4375 3 3 C3.33 3 3.66 3 4 3 C4.99 3 5.98 3 7 3 C7 3.99 7 4.98 7 6 C6.34 5.67 5.68 5.34 5 5 C5 5.66 5 6.32 5 7 C3.35 7.33 1.7 7.66 0 8 C-1.98 4.535 -1.98 4.535 -4 1 C-2.1875 0.3125 -2.1875 0.3125 0 0 Z " fill="#444444" transform="translate(129,321)"/>
<path d="M0 0 C0.66 0.33 1.32 0.66 2 1 C2 2.32 2 3.64 2 5 C2.99 5.33 3.98 5.66 5 6 C4.34 6 3.68 6 3 6 C3.33 7.32 3.66 8.64 4 10 C0.25 11.125 0.25 11.125 -2 10 C-2 8.68 -2 7.36 -2 6 C-1.34 6 -0.68 6 0 6 C-0.2784375 5.071875 -0.2784375 5.071875 -0.5625 4.125 C-1 2 -1 2 0 0 Z " fill="#484848" transform="translate(518,268)"/>
<path d="M0 0 C0.66 0 1.32 0 2 0 C2.268125 1.11375 2.53625 2.2275 2.8125 3.375 C3.65809019 7.21840951 3.65809019 7.21840951 7 9 C6.67 9.66 6.34 10.32 6 11 C4.68 10.67 3.36 10.34 2 10 C2 10.66 2 11.32 2 12 C1.01 11.67 0.02 11.34 -1 11 C-0.34 11 0.32 11 1 11 C1 10.34 1 9.68 1 9 C-0.32 8.34 -1.64 7.68 -3 7 C-1.68 6.67 -0.36 6.34 1 6 C0.67 4.02 0.34 2.04 0 0 Z " fill="#0F0F0F" transform="translate(525,262)"/>
<path d="M0 0 C0.33 0.99 0.66 1.98 1 3 C2.49985609 4.66710346 2.49985609 4.66710346 4 6 C2.906875 6.309375 1.81375 6.61875 0.6875 6.9375 C-1.55407994 7.58337897 -3.7869351 8.2623117 -6 9 C-5.67 7.02 -5.34 5.04 -5 3 C-4.01 3 -3.02 3 -2 3 C-2 2.34 -2 1.68 -2 1 C-1.34 0.67 -0.68 0.34 0 0 Z " fill="#3F3F3F" transform="translate(443,337)"/>
<path d="M0 0 C0.66 0.33 1.32 0.66 2 1 C1.67 2.98 1.34 4.96 1 7 C1.66 7.33 2.32 7.66 3 8 C0.50935112 8.68707555 -1.37886292 9 -4 9 C-4 8.34 -4 7.68 -4 7 C-4.99 6.34 -5.98 5.68 -7 5 C-6.030625 4.54625 -5.06125 4.0925 -4.0625 3.625 C-0.92920418 2.34213779 -0.92920418 2.34213779 0 0 Z " fill="#111111" transform="translate(189,278)"/>
<path d="M0 0 C0.33 0 0.66 0 1 0 C1 5.61 1 11.22 1 17 C0.34 17 -0.32 17 -1 17 C-0.67 15.68 -0.34 14.36 0 13 C-1.32 13 -2.64 13 -4 13 C-4.33 10.69 -4.66 8.38 -5 6 C-4.34 6 -3.68 6 -3 6 C-2.67 7.65 -2.34 9.3 -2 11 C-1.34 11 -0.68 11 0 11 C0 7.37 0 3.74 0 0 Z " fill="#383838" transform="translate(462,335)"/>
<path d="M0 0 C1.98 0 3.96 0 6 0 C6.33 0.99 6.66 1.98 7 3 C8.99665314 4.68538601 8.99665314 4.68538601 11 6 C10.67 6.99 10.34 7.98 10 9 C8.02 9 6.04 9 4 9 C4 6.36 4 3.72 4 1 C2.68 0.67 1.36 0.34 0 0 Z " fill="#1D1D1D" transform="translate(36,333)"/>
<path d="M0 0 C1.22589844 0.29197266 1.22589844 0.29197266 2.4765625 0.58984375 C3.41628906 0.82380859 3.41628906 0.82380859 4.375 1.0625 C4.375 1.7225 4.375 2.3825 4.375 3.0625 C3.385 3.3925 2.395 3.7225 1.375 4.0625 C2.035 5.3825 2.695 6.7025 3.375 8.0625 C2.055 8.0625 0.735 8.0625 -0.625 8.0625 C-0.91375 7.093125 -1.2025 6.12375 -1.5 5.125 C-2.26714682 1.95585797 -2.26714682 1.95585797 -4.625 1.0625 C-4.625 1.7225 -4.625 2.3825 -4.625 3.0625 C-5.285 3.0625 -5.945 3.0625 -6.625 3.0625 C-6.625 2.0725 -6.625 1.0825 -6.625 0.0625 C-3.99249612 -1.25375194 -2.82320944 -0.68563658 0 0 Z " fill="#393939" transform="translate(325.625,314.9375)"/>
<path d="M0 0 C0.66 0 1.32 0 2 0 C2.33 0.99 2.66 1.98 3 3 C3.99 3 4.98 3 6 3 C5.34 4.65 4.68 6.3 4 8 C1.69 8 -0.62 8 -3 8 C-3.33 7.34 -3.66 6.68 -4 6 C-3.34 6 -2.68 6 -2 6 C-2 5.34 -2 4.68 -2 4 C-1.34 4 -0.68 4 0 4 C0 2.68 0 1.36 0 0 Z " fill="#454545" transform="translate(181,300)"/>
<path d="M0 0 C2.64 0.66 5.28 1.32 8 2 C7.34 3.98 6.68 5.96 6 8 C4.35 7.67 2.7 7.34 1 7 C1.33 6.01 1.66 5.02 2 4 C1.01 4 0.02 4 -1 4 C-0.67 2.68 -0.34 1.36 0 0 Z " fill="#404040" transform="translate(184,294)"/>
<path d="M0 0 C0.33 0.99 0.66 1.98 1 3 C-0.65 3 -2.3 3 -4 3 C-4 5.64 -4 8.28 -4 11 C-4.66 11 -5.32 11 -6 11 C-6 10.01 -6 9.02 -6 8 C-6.99 8 -7.98 8 -9 8 C-9.33 5.69 -9.66 3.38 -10 1 C-9.34 1 -8.68 1 -8 1 C-7.67 2.32 -7.34 3.64 -7 5 C-6.67 4.01 -6.34 3.02 -6 2 C-4.02 2 -2.04 2 0 2 C0 1.34 0 0.68 0 0 Z " fill="#3A3A3A" transform="translate(498,337)"/>
<path d="M0 0 C0.66 0 1.32 0 2 0 C2 1.32 2 2.64 2 4 C2.99 4.33 3.98 4.66 5 5 C4.01 5.33 3.02 5.66 2 6 C1.01 7.485 1.01 7.485 0 9 C-0.99 8.67 -1.98 8.34 -3 8 C-4.1875 4.4375 -4.1875 4.4375 -5 1 C-4.34 1 -3.68 1 -3 1 C-2.67 1.66 -2.34 2.32 -2 3 C-1.34 3 -0.68 3 0 3 C0 2.01 0 1.02 0 0 Z " fill="#9D9D9D" transform="translate(457,324)"/>
<path d="M0 0 C0 0.66 0 1.32 0 2 C-0.66 2 -1.32 2 -2 2 C-3.01111093 5.04913228 -3.01111093 5.04913228 -2 8 C-2.99 8 -3.98 8 -5 8 C-5.33 8.66 -5.66 9.32 -6 10 C-7.25664978 7.09399739 -8 5.20395416 -8 2 C-2.25 0 -2.25 0 0 0 Z " fill="#1B1B1B" transform="translate(256,307)"/>
<path d="M0 0 C0 1.32 0 2.64 0 4 C-0.66 4 -1.32 4 -2 4 C-2 5.32 -2 6.64 -2 8 C-2.99 8 -3.98 8 -5 8 C-4.67 7.01 -4.34 6.02 -4 5 C-4.66 4.67 -5.32 4.34 -6 4 C-6 2.68 -6 1.36 -6 0 C-3 -1 -3 -1 0 0 Z " fill="#606060" transform="translate(181,295)"/>
<path d="M0 0 C2.56616632 3.84924948 2.55097676 6.4349304 3 11 C0.20127563 8.47211993 -1.45773019 6.79588866 -2 3 C-2.33 4.32 -2.66 5.64 -3 7 C-4.65 6.67 -6.3 6.34 -8 6 C-7.4225 5.7525 -6.845 5.505 -6.25 5.25 C-3.6997003 3.83316683 -1.98214299 2.12372463 0 0 Z " fill="#FEC062" transform="translate(407,316)"/>
<path d="M0 0 C1.32 0 2.64 0 4 0 C4.33 2.31 4.66 4.62 5 7 C2.69 7.33 0.38 7.66 -2 8 C-2.33 7.01 -2.66 6.02 -3 5 C-1.68 4.67 -0.36 4.34 1 4 C0.67 2.68 0.34 1.36 0 0 Z " fill="#666666" transform="translate(244,307)"/>
<path d="M0 0 C1.32 0 2.64 0 4 0 C4 0.66 4 1.32 4 2 C4.99 2 5.98 2 7 2 C7 2.66 7 3.32 7 4 C6.01 4.495 6.01 4.495 5 5 C5 5.99 5 6.98 5 8 C4.01 8.33 3.02 8.66 2 9 C2.33 7.35 2.66 5.7 3 4 C1.68 4 0.36 4 -1 4 C-0.67 2.68 -0.34 1.36 0 0 Z " fill="#515151" transform="translate(241,275)"/>
<path d="M0 0 C0.99 0.99 1.98 1.98 3 3 C1.68 3 0.36 3 -1 3 C-1.33 4.98 -1.66 6.96 -2 9 C-2.66 9 -3.32 9 -4 9 C-6 6 -6 6 -5.625 3.3125 C-5.41875 2.549375 -5.2125 1.78625 -5 1 C-4.67 1.66 -4.34 2.32 -4 3 C-3.34 3 -2.68 3 -2 3 C-2 2.34 -2 1.68 -2 1 C-1.34 0.67 -0.68 0.34 0 0 Z " fill="#0B0B0B" transform="translate(547,342)"/>
<path d="M0 0 C0.99 0.33 1.98 0.66 3 1 C2.67 2.32 2.34 3.64 2 5 C4.475 5.99 4.475 5.99 7 7 C7 7.99 7 8.98 7 10 C3.89448334 10 2.64738916 9.4606285 0 8 C0 5.36 0 2.72 0 0 Z " fill="#101010" transform="translate(172,320)"/>
<path d="M0 0 C1.1446875 0.2475 1.1446875 0.2475 2.3125 0.5 C5.03596236 1.09145396 5.03596236 1.09145396 8 1 C8.33 3.31 8.66 5.62 9 8 C7.35 8.33 5.7 8.66 4 9 C4 8.34 4 7.68 4 7 C4.66 7 5.32 7 6 7 C6 6.34 6 5.68 6 5 C5.34 5 4.68 5 4 5 C4 4.01 4 3.02 4 2 C2.68 2 1.36 2 0 2 C0 1.34 0 0.68 0 0 Z " fill="#434343" transform="translate(175,333)"/>
<path d="M0 0 C0.66 1.32 1.32 2.64 2 4 C2.99 4 3.98 4 5 4 C5 4.66 5 5.32 5 6 C5.66 6.66 6.32 7.32 7 8 C6.360625 8.103125 5.72125 8.20625 5.0625 8.3125 C4.0415625 8.6528125 4.0415625 8.6528125 3 9 C2.67 9.99 2.34 10.98 2 12 C1.34 12 0.68 12 0 12 C0 8.04 0 4.08 0 0 Z " fill="#3C3C3C" transform="translate(46,343)"/>
<path d="M0 0 C0.99 0.99 1.98 1.98 3 3 C2.67 3.66 2.34 4.32 2 5 C1.34 4.67 0.68 4.34 0 4 C0 4.66 0 5.32 0 6 C0.66 6.33 1.32 6.66 2 7 C1.360625 7.12375 0.72125 7.2475 0.0625 7.375 C-0.9584375 7.684375 -0.9584375 7.684375 -2 8 C-2.33 8.66 -2.66 9.32 -3 10 C-3 7.03 -3 4.06 -3 1 C-2.01 0.67 -1.02 0.34 0 0 Z " fill="#404040" transform="translate(334,344)"/>
<path d="M0 0 C0.66 0.33 1.32 0.66 2 1 C2.19622241 5.21878192 1.80230168 8.17010894 0 12 C-0.99 11.67 -1.98 11.34 -3 11 C-3 8 -3 8 -1 6 C-1.66 6 -2.32 6 -3 6 C-3 5.34 -3 4.68 -3 4 C-2.34 3.67 -1.68 3.34 -1 3 C-0.67 2.01 -0.34 1.02 0 0 Z " fill="#252525" transform="translate(337,317)"/>
<path d="M0 0 C0.99 0 1.98 0 3 0 C3 2.64 3 5.28 3 8 C1.68 8 0.36 8 -1 8 C-1.04241723 5.66705225 -1.04092937 3.33297433 -1 1 C-0.67 0.67 -0.34 0.34 0 0 Z " fill="#2C2C2C" transform="translate(195,276)"/>
<path d="M0 0 C0.99 0 1.98 0 3 0 C3.33 1.65 3.66 3.3 4 5 C3.34 5 2.68 5 2 5 C1.67 5.99 1.34 6.98 1 8 C0.01 7.67 -0.98 7.34 -2 7 C-1.34 4.69 -0.68 2.38 0 0 Z " fill="#ADADAD" transform="translate(183,314)"/>
<path d="M0 0 C1.9375 0.6875 1.9375 0.6875 4 2 C4.75 4.625 4.75 4.625 5 7 C3.125 7.625 3.125 7.625 1 8 C0.34 7.34 -0.32 6.68 -1 6 C-0.625 2.875 -0.625 2.875 0 0 Z " fill="#6E6E6E" transform="translate(239,290)"/>
<path d="M0 0 C0.33 0.66 0.66 1.32 1 2 C1.66 2 2.32 2 3 2 C3.33 1.34 3.66 0.68 4 0 C4 0.99 4 1.98 4 3 C4.66 3 5.32 3 6 3 C6 4.32 6 5.64 6 7 C4.35 7 2.7 7 1 7 C0.67 4.69 0.34 2.38 0 0 Z " fill="#636363" transform="translate(257,344)"/>
<path d="M0 0 C6.75 1.625 6.75 1.625 9 5 C9.99 5.66 10.98 6.32 12 7 C10.02 7 8.04 7 6 7 C5.67 6.34 5.34 5.68 5 5 C4.154375 4.505 3.30875 4.01 2.4375 3.5 C1.633125 3.005 0.82875 2.51 0 2 C0 1.34 0 0.68 0 0 Z " fill="#2D2D2D" transform="translate(137,323)"/>
<path d="M0 0 C2.83022097 3.99560608 1.76210446 7.42737323 1 12 C0.01 12 -0.98 12 -2 12 C-2.99 12.495 -2.99 12.495 -4 13 C-4 11.68 -4 10.36 -4 9 C-3.01 8.67 -2.02 8.34 -1 8 C-1.020625 7.05125 -1.04125 6.1025 -1.0625 5.125 C-1 2 -1 2 0 0 Z " fill="#2B2B2B" transform="translate(338,302)"/>
<path d="M0 0 C0.66 0 1.32 0 2 0 C2 1.65 2 3.3 2 5 C2.99 5.33 3.98 5.66 5 6 C4.67 6.66 4.34 7.32 4 8 C4.66 8 5.32 8 6 8 C6 8.66 6 9.32 6 10 C4.02 9.34 2.04 8.68 0 8 C-0.38063221 5.6739143 -0.71269945 3.33944736 -1 1 C-0.67 0.67 -0.34 0.34 0 0 Z " fill="#FEC062" transform="translate(402,285)"/>
<path d="M0 0 C2.97 0.495 2.97 0.495 6 1 C6.33 2.65 6.66 4.3 7 6 C6.34 6 5.68 6 5 6 C5 5.34 5 4.68 5 4 C4.01 4 3.02 4 2 4 C1.34 4.99 0.68 5.98 0 7 C0 4.69 0 2.38 0 0 Z " fill="#3F3F3F" transform="translate(500,340)"/>
<path d="M0 0 C1.65 0 3.3 0 5 0 C5 1.98 5 3.96 5 6 C2.03 5.505 2.03 5.505 -1 5 C-0.67 3.35 -0.34 1.7 0 0 Z " fill="#010101" transform="translate(282,332)"/>
<path d="M0 0 C0 2.64 0 5.28 0 8 C-0.33 6.68 -0.66 5.36 -1 4 C-2.32 3.67 -3.64 3.34 -5 3 C-4.34 3 -3.68 3 -3 3 C-3 2.34 -3 1.68 -3 1 C-3.99 1 -4.98 1 -6 1 C-6.33 1.66 -6.66 2.32 -7 3 C-7 2.01 -7 1.02 -7 0 C-3.86650268 -1.04449911 -3.01031744 -0.93423645 0 0 Z " fill="#0A0A0A" transform="translate(54,346)"/>
<path d="M0 0 C2.97 0.495 2.97 0.495 6 1 C6 1.33 6 1.66 6 2 C4.02 2 2.04 2 0 2 C0 3.98 0 5.96 0 8 C-1.32 8 -2.64 8 -4 8 C-4.33 7.01 -4.66 6.02 -5 5 C-4.34 4.67 -3.68 4.34 -3 4 C-2.34 4.33 -1.68 4.66 -1 5 C-0.67 3.35 -0.34 1.7 0 0 Z " fill="#3D3D3D" transform="translate(278,336)"/>
<path d="M0 0 C2.475 0.99 2.475 0.99 5 2 C4.34 4.97 3.68 7.94 3 11 C2.34 10.67 1.68 10.34 1 10 C1.33 8.35 1.66 6.7 2 5 C1.34 5 0.68 5 0 5 C0 3.35 0 1.7 0 0 Z " fill="#FEB13C" transform="translate(394,333)"/>
<path d="M0 0 C1.32 0.33 2.64 0.66 4 1 C3.67 3.31 3.34 5.62 3 8 C1.68 8.33 0.36 8.66 -1 9 C-1 8.34 -1 7.68 -1 7 C-1.66 6.67 -2.32 6.34 -3 6 C-1.68 6 -0.36 6 1 6 C0.67 4.02 0.34 2.04 0 0 Z " fill="#AFAFAF" transform="translate(191,276)"/>
<path d="M0 0 C0.99 0.33 1.98 0.66 3 1 C3 1.66 3 2.32 3 3 C3.66 3 4.32 3 5 3 C4.67 4.32 4.34 5.64 4 7 C3.67 6.34 3.34 5.68 3 5 C2.67 6.65 2.34 8.3 2 10 C1.34 10 0.68 10 0 10 C0 6.7 0 3.4 0 0 Z " fill="#080808" transform="translate(516,264)"/>
<path d="M0 0 C1.5 1.375 1.5 1.375 3 3 C3 3.66 3 4.32 3 5 C2.34 5 1.68 5 1 5 C1.66 6.65 2.32 8.3 3 10 C1.68 9.67 0.36 9.34 -1 9 C-1.625 5.625 -1.625 5.625 -2 2 C-1.34 1.34 -0.68 0.68 0 0 Z " fill="#272727" transform="translate(189,305)"/>
<path d="M0 0 C2.1385485 2.1385485 2.42655063 3.13275314 3 6 C0 7 0 7 -3 6 C-3 4.68 -3 3.36 -3 2 C-2.01 2 -1.02 2 0 2 C0 1.34 0 0.68 0 0 Z " fill="#666666" transform="translate(211,300)"/>
<path d="M0 0 C-0.33 0.66 -0.66 1.32 -1 2 C-1.99 1.67 -2.98 1.34 -4 1 C-3.814375 1.61875 -3.62875 2.2375 -3.4375 2.875 C-3 5 -3 5 -4 7 C-4.66 7 -5.32 7 -6 7 C-6 5.02 -6 3.04 -6 1 C-6.66 0.67 -7.32 0.34 -8 0 C-4.94736336 -0.98120464 -3.05263664 -0.98120464 0 0 Z " fill="#353535" transform="translate(186,271)"/>
<path d="M0 0 C0.78375 0.04125 1.5675 0.0825 2.375 0.125 C2.375 0.785 2.375 1.445 2.375 2.125 C1.385 2.125 0.395 2.125 -0.625 2.125 C-0.955 3.115 -1.285 4.105 -1.625 5.125 C-2.285 5.125 -2.945 5.125 -3.625 5.125 C-3.625 5.785 -3.625 6.445 -3.625 7.125 C-4.285 7.125 -4.945 7.125 -5.625 7.125 C-4.53409091 0.21590909 -4.53409091 0.21590909 0 0 Z " fill="#1B1B1B" transform="translate(274.625,338.875)"/>
<path d="M0 0 C1.65 0 3.3 0 5 0 C5 1.32 5 2.64 5 4 C4.34 4 3.68 4 3 4 C2.67 4.66 2.34 5.32 2 6 C2 5.34 2 4.68 2 4 C1.01 4.33 0.02 4.66 -1 5 C-0.67 3.35 -0.34 1.7 0 0 Z " fill="#414141" transform="translate(525,320)"/>
<path d="M0 0 C1.65 0 3.3 0 5 0 C5 1.98 5 3.96 5 6 C3.0625 5.25 3.0625 5.25 1 4 C0.25 1.875 0.25 1.875 0 0 Z " fill="#383838" transform="translate(114,319)"/>
<path d="M0 0 C0.33 0 0.66 0 1 0 C1 1.65 1 3.3 1 5 C0.34 5 -0.32 5 -1 5 C-1 5.66 -1 6.32 -1 7 C-2.98 6.34 -4.96 5.68 -7 5 C-6.67 4.01 -6.34 3.02 -6 2 C-5.34 2 -4.68 2 -4 2 C-4 2.66 -4 3.32 -4 4 C-3.01 4 -2.02 4 -1 4 C-0.67 2.68 -0.34 1.36 0 0 Z " fill="#0C0C0C" transform="translate(245,302)"/>
<path d="M0 0 C2 1 2 1 2.9375 3.375 C3.98373709 5.95982105 4.92113535 7.2046169 7 9 C3.32579134 8.69381595 2.21864487 8.24228216 -0.3125 5.4375 C-0.869375 4.633125 -1.42625 3.82875 -2 3 C-1.34 2.67 -0.68 2.34 0 2 C0 1.34 0 0.68 0 0 Z " fill="#FEB74B" transform="translate(405,279)"/>
<path d="M0 0 C2.475 0.99 2.475 0.99 5 2 C5 3.65 5 5.3 5 7 C4.01 7 3.02 7 2 7 C1.814375 6.071875 1.814375 6.071875 1.625 5.125 C1.12802644 2.80879168 1.12802644 2.80879168 -1 1 C-0.67 0.67 -0.34 0.34 0 0 Z " fill="#313131" transform="translate(555,337)"/>
<path d="M0 0 C1.65 0 3.3 0 5 0 C5 3.3 5 6.6 5 10 C4.67 8.68 4.34 7.36 4 6 C2.68 5.67 1.36 5.34 0 5 C0.99 4.67 1.98 4.34 3 4 C2.67 3.01 2.34 2.02 2 1 C1.34 0.67 0.68 0.34 0 0 Z " fill="#232323" transform="translate(565,332)"/>
<path d="M0 0 C2.475 0.495 2.475 0.495 5 1 C5 1.99 5 2.98 5 4 C6.32 4.33 7.64 4.66 9 5 C8.67 5.33 8.34 5.66 8 6 C5.66055264 5.71269945 3.3260857 5.38063221 1 5 C0.67 3.35 0.34 1.7 0 0 Z " fill="#FEB84E" transform="translate(394,325)"/>
<path d="M0 0 C2.64 0 5.28 0 8 0 C6.35 1.65 4.7 3.3 3 5 C1.68 4.34 0.36 3.68 -1 3 C-0.67 2.01 -0.34 1.02 0 0 Z " fill="#181818" transform="translate(133,320)"/>
<path d="M0 0 C1.32 0.33 2.64 0.66 4 1 C4.33 2.32 4.66 3.64 5 5 C2.525 6.485 2.525 6.485 0 8 C0 5.36 0 2.72 0 0 Z " fill="#636363" transform="translate(49,315)"/>
<path d="M0 0 C1.98 0.66 3.96 1.32 6 2 C5.67 3.98 5.34 5.96 5 8 C2 4.25 2 4.25 2 2 C1.34 2 0.68 2 0 2 C0 1.34 0 0.68 0 0 Z " fill="#171717" transform="translate(456,311)"/>
<path d="M0 0 C0.33 0.66 0.66 1.32 1 2 C1.66 2 2.32 2 3 2 C3 4.31 3 6.62 3 9 C2.01 9 1.02 9 0 9 C0 6.03 0 3.06 0 0 Z " fill="#979797" transform="translate(436,344)"/>
<path d="M0 0 C2.31 0.66 4.62 1.32 7 2 C7 1.34 7 0.68 7 0 C7.66 0.33 8.32 0.66 9 1 C8.67 2.65 8.34 4.3 8 6 C7.34 6 6.68 6 6 6 C6 5.34 6 4.68 6 4 C5.071875 3.7834375 5.071875 3.7834375 4.125 3.5625 C2 3 2 3 0 2 C0 1.34 0 0.68 0 0 Z " fill="#696969" transform="translate(264,344)"/>
<path d="M0 0 C0.99 0.66 1.98 1.32 3 2 C2.34 3.98 1.68 5.96 1 8 C0.34 8 -0.32 8 -1 8 C-1.625 5.6875 -1.625 5.6875 -2 3 C-1.34 2.01 -0.68 1.02 0 0 Z " fill="#383838" transform="translate(509,337)"/>
<path d="M0 0 C0.66 0 1.32 0 2 0 C2 0.99 2 1.98 2 3 C2.66 3 3.32 3 4 3 C4 4.32 4 5.64 4 7 C2.68 6.67 1.36 6.34 0 6 C0 4 0 2 0 0 Z " fill="#FED89E" transform="translate(398,334)"/>
<path d="M0 0 C0.66 0.66 1.32 1.32 2 2 C1.34 2.66 0.68 3.32 0 4 C0.33 4.99 0.66 5.98 1 7 C0.01 7 -0.98 7 -2 7 C-2.33 7.66 -2.66 8.32 -3 9 C-3 6.36 -3 3.72 -3 1 C-2.01 0.67 -1.02 0.34 0 0 Z " fill="#111111" transform="translate(440,333)"/>
<path d="M0 0 C1.76462683 3.08809695 2 4.23312136 2 8 C2.66 8.33 3.32 8.66 4 9 C3.01 9 2.02 9 1 9 C1 8.34 1 7.68 1 7 C0.34 7 -0.32 7 -1 7 C-1.66 5.68 -2.32 4.36 -3 3 C-2.34 3 -1.68 3 -1 3 C-0.67 2.01 -0.34 1.02 0 0 Z " fill="#222222" transform="translate(189,317)"/>
<path d="M0 0 C0.66 0 1.32 0 2 0 C3.85776765 3.13498292 4.20140476 5.37471432 4 9 C3.01 9 2.02 9 1 9 C1.33 7.35 1.66 5.7 2 4 C1.34 4 0.68 4 0 4 C0 2.68 0 1.36 0 0 Z " fill="#B3B3B3" transform="translate(42,300)"/>
<path d="M0 0 C2.31 0 4.62 0 7 0 C7.33 0.99 7.66 1.98 8 3 C5.03 3 2.06 3 -1 3 C-0.67 2.01 -0.34 1.02 0 0 Z " fill="#787878" transform="translate(552,302)"/>
<path d="M0 0 C2.39489543 0.74324341 3.70777616 1.47057354 4.93359375 3.69140625 C5.67219923 5.44073501 6.34049685 7.21934149 7 9 C3.26955235 7.75651745 2.20459674 6.19286425 0 3 C0 2.01 0 1.02 0 0 Z " fill="#878787" transform="translate(523,287)"/>
<path d="M0 0 C0.33 0.99 0.66 1.98 1 3 C2.32 3 3.64 3 5 3 C5 3.66 5 4.32 5 5 C2.36 5 -0.28 5 -3 5 C-3 3.68 -3 2.36 -3 1 C-2.01 0.67 -1.02 0.34 0 0 Z " fill="#424242" transform="translate(249,271)"/>
<path d="M0 0 C0.66 1.32 1.32 2.64 2 4 C3.32 4 4.64 4 6 4 C6 4.99 6 5.98 6 7 C4.02 7 2.04 7 0 7 C0 4.69 0 2.38 0 0 Z " fill="#272727" transform="translate(196,344)"/>
<path d="M0 0 C1.32 0.66 2.64 1.32 4 2 C0.04 3.98 0.04 3.98 -4 6 C-4 4.68 -4 3.36 -4 2 C-2.25 0.875 -2.25 0.875 0 0 Z " fill="#5B5B5B" transform="translate(532,342)"/>
<path d="M0 0 C0.99 0 1.98 0 3 0 C2.67 2.64 2.34 5.28 2 8 C1.01 8.33 0.02 8.66 -1 9 C-1.09765625 2.84765625 -1.09765625 2.84765625 -1 1 C-0.67 0.67 -0.34 0.34 0 0 Z " fill="#626262" transform="translate(455,313)"/>
<path d="M0 0 C0.2475 0.61875 0.495 1.2375 0.75 1.875 C2.20628639 4.35068687 3.37812506 4.95125002 6 6 C3.69 6.33 1.38 6.66 -1 7 C-1.33 5.68 -1.66 4.36 -2 3 C-1.34 3 -0.68 3 0 3 C0 2.01 0 1.02 0 0 Z " fill="#646464" transform="translate(43,309)"/>
<path d="M0 0 C0.99 0 1.98 0 3 0 C3.66 1.98 4.32 3.96 5 6 C3.35 6 1.7 6 0 6 C0 4.02 0 2.04 0 0 Z " fill="#222222" transform="translate(57,307)"/>
<path d="M0 0 C1.65 0.33 3.3 0.66 5 1 C5 1.99 5 2.98 5 4 C2.36 4 -0.28 4 -3 4 C-2.01 2.68 -1.02 1.36 0 0 Z " fill="#919191" transform="translate(474,301)"/>
<path d="M0 0 C2.02045442 0.60183749 4.02111039 1.27306096 6 2 C6.33 2.66 6.66 3.32 7 4 C4.39417629 4.93065133 3.35801776 5.14917407 0.75 4.0625 C0.1725 3.711875 -0.405 3.36125 -1 3 C-0.67 2.01 -0.34 1.02 0 0 Z " fill="#161616" transform="translate(184,300)"/>
<path d="M0 0 C0 0.66 0 1.32 0 2 C-0.99 2.33 -1.98 2.66 -3 3 C-3.66 2.67 -4.32 2.34 -5 2 C-5 3.32 -5 4.64 -5 6 C-5.66 6 -6.32 6 -7 6 C-7 4.35 -7 2.7 -7 1 C-4.53721199 -0.231394 -2.7204945 -0.07159196 0 0 Z " fill="#090909" transform="translate(186,298)"/>
<path d="M0 0 C0.66 0 1.32 0 2 0 C1.67 1.32 1.34 2.64 1 4 C0.01 4 -0.98 4 -2 4 C-2 4.99 -2 5.98 -2 7 C-2.99 6.67 -3.98 6.34 -5 6 C-4.67 4.68 -4.34 3.36 -4 2 C-2.68 2 -1.36 2 0 2 C0 1.34 0 0.68 0 0 Z " fill="#646464" transform="translate(42,292)"/>
<path d="M0 0 C1.32 0.66 2.64 1.32 4 2 C4 2.99 4 3.98 4 5 C2.02 5 0.04 5 -2 5 C-1.34 3.35 -0.68 1.7 0 0 Z " fill="#494949" transform="translate(235,346)"/>
<path d="M0 0 C3 0 3 0 4.75 1.25 C6 3 6 3 5.6875 5.1875 C5.460625 5.785625 5.23375 6.38375 5 7 C5 6.01 5 5.02 5 4 C3.35 4 1.7 4 0 4 C0 2.68 0 1.36 0 0 Z " fill="#5F5F5F" transform="translate(451,343)"/>
<path d="M0 0 C0.33 0 0.66 0 1 0 C1 2.64 1 5.28 1 8 C0.34 7.67 -0.32 7.34 -1 7 C-1 6.34 -1 5.68 -1 5 C-1.99 4.67 -2.98 4.34 -4 4 C-4 3.34 -4 2.68 -4 2 C-3.01 2 -2.02 2 -1 2 C-0.67 1.34 -0.34 0.68 0 0 Z " fill="#3B3B3B" transform="translate(149,340)"/>
<path d="M0 0 C1.32 0 2.64 0 4 0 C4 1.32 4 2.64 4 4 C2.02 4 0.04 4 -2 4 C-2 3.34 -2 2.68 -2 2 C-1.34 2 -0.68 2 0 2 C0 1.34 0 0.68 0 0 Z " fill="#989898" transform="translate(176,321)"/>
<path d="M0 0 C0.66 0.33 1.32 0.66 2 1 C0.02 3.97 0.02 3.97 -2 7 C-2.99 6.67 -3.98 6.34 -5 6 C-4.67 4.68 -4.34 3.36 -4 2 C-2.68 2 -1.36 2 0 2 C0 1.34 0 0.68 0 0 Z " fill="#707070" transform="translate(450,317)"/>
<path d="M0 0 C0.66 0.66 1.32 1.32 2 2 C1.67 2.99 1.34 3.98 1 5 C-0.98 5.33 -2.96 5.66 -5 6 C-4.67 4.68 -4.34 3.36 -4 2 C-3.01 2 -2.02 2 -1 2 C-0.67 1.34 -0.34 0.68 0 0 Z " fill="#303030" transform="translate(527,295)"/>
<path d="M0 0 C0 0.66 0 1.32 0 2 C-4.455 2.495 -4.455 2.495 -9 3 C-9 2.34 -9 1.68 -9 1 C-3.375 -1.125 -3.375 -1.125 0 0 Z " fill="#535353" transform="translate(191,287)"/>
<path d="M0 0 C0.66 0 1.32 0 2 0 C2.33 1.32 2.66 2.64 3 4 C2.01 4 1.02 4 0 4 C0 2.68 0 1.36 0 0 Z M-2 2 C-0.5 3.375 -0.5 3.375 1 5 C1 5.66 1 6.32 1 7 C0.34 7 -0.32 7 -1 7 C-1 6.34 -1 5.68 -1 5 C-1.66 5 -2.32 5 -3 5 C-2.67 4.01 -2.34 3.02 -2 2 Z " fill="#2D2D2D" transform="translate(249,280)"/>
<path d="M0 0 C2.9375 0.375 2.9375 0.375 6 1 C6.33 1.66 6.66 2.32 7 3 C5.35 3.66 3.7 4.32 2 5 C2 4.34 2 3.68 2 3 C1.34 3 0.68 3 0 3 C0 2.01 0 1.02 0 0 Z " fill="#8E8E8E" transform="translate(527,272)"/>
<path d="M0 0 C2.475 0.495 2.475 0.495 5 1 C4.67 2.65 4.34 4.3 4 6 C2.68 5.34 1.36 4.68 0 4 C0 2.68 0 1.36 0 0 Z " fill="#424242" transform="translate(527,264)"/>
<path d="M0 0 C1.2065625 0.0309375 1.2065625 0.0309375 2.4375 0.0625 C2.4375 1.0525 2.4375 2.0425 2.4375 3.0625 C0.7875 3.3925 -0.8625 3.7225 -2.5625 4.0625 C-2.8925 3.0725 -3.2225 2.0825 -3.5625 1.0625 C-2.5625 0.0625 -2.5625 0.0625 0 0 Z " fill="#1A1A1A" transform="translate(519.5625,337.9375)"/>
<path d="M0 0 C2.97 0.495 2.97 0.495 6 1 C6 2.65 6 4.3 6 6 C5.01 6 4.02 6 3 6 C2.01 4.02 1.02 2.04 0 0 Z " fill="#303030" transform="translate(558,332)"/>
<path d="M0 0 C0.66 0.66 1.32 1.32 2 2 C1.625 4.125 1.625 4.125 1 6 C-0.32 6.33 -1.64 6.66 -3 7 C-2.625 4.0625 -2.625 4.0625 -2 1 C-1.34 0.67 -0.68 0.34 0 0 Z " fill="#131313" transform="translate(534,328)"/>
<path d="M0 0 C0.66 0 1.32 0 2 0 C2.66 0.66 3.32 1.32 4 2 C4.66 2 5.32 2 6 2 C6 2.99 6 3.98 6 5 C4.35 5 2.7 5 1 5 C0.67 3.35 0.34 1.7 0 0 Z " fill="#292929" transform="translate(239,312)"/>
<path d="M0 0 C2.0625 0.4375 2.0625 0.4375 4 1 C3.67 2.32 3.34 3.64 3 5 C2.01 5 1.02 5 0 5 C-0.5625 3.0625 -0.5625 3.0625 -1 1 C-0.67 0.67 -0.34 0.34 0 0 Z " fill="#1B1B1B" transform="translate(241,301)"/>
<path d="M0 0 C2.475 0.495 2.475 0.495 5 1 C5.33 2.65 5.66 4.3 6 6 C4.68 5.34 3.36 4.68 2 4 C2 3.01 2 2.02 2 1 C1.34 0.67 0.68 0.34 0 0 Z " fill="#3D3D3D" transform="translate(134,336)"/>
<path d="M0 0 C0.99 0.33 1.98 0.66 3 1 C2.67 2.65 2.34 4.3 2 6 C0.68 4.68 -0.64 3.36 -2 2 C-1.34 1.34 -0.68 0.68 0 0 Z " fill="#030303" transform="translate(337,329)"/>
<path d="M0 0 C0.66 0 1.32 0 2 0 C2 1.32 2 2.64 2 4 C2.99 4.33 3.98 4.66 5 5 C3.02 5.66 1.04 6.32 -1 7 C-0.67 4.69 -0.34 2.38 0 0 Z " fill="#636363" transform="translate(457,324)"/>
<path d="M0 0 C1.65 0 3.3 0 5 0 C4.3125 1.9375 4.3125 1.9375 3 4 C0.375 4.75 0.375 4.75 -2 5 C-1.34 3.35 -0.68 1.7 0 0 Z " fill="#252525" transform="translate(181,284)"/>
<path d="M0 0 C0.33 0.66 0.66 1.32 1 2 C1.66 2 2.32 2 3 2 C3.33 3.32 3.66 4.64 4 6 C2.68 6.33 1.36 6.66 0 7 C0 4.69 0 2.38 0 0 Z " fill="#747474" transform="translate(516,340)"/>
<path d="M0 0 C0.99 0.33 1.98 0.66 3 1 C3 2.65 3 4.3 3 6 C2.01 6 1.02 6 0 6 C-1 3 -1 3 0 0 Z " fill="#020202" transform="translate(174,344)"/>
<path d="M0 0 C0.66 0 1.32 0 2 0 C2 0.99 2 1.98 2 3 C2.99 3.33 3.98 3.66 5 4 C4.67 4.66 4.34 5.32 4 6 C2.68 5.67 1.36 5.34 0 5 C-0.5625 3.0625 -0.5625 3.0625 -1 1 C-0.67 0.67 -0.34 0.34 0 0 Z " fill="#696969" transform="translate(523,311)"/>
<path d="M0 0 C0.33 0.66 0.66 1.32 1 2 C2.32 2 3.64 2 5 2 C5.33 3.32 5.66 4.64 6 6 C4.02 5.34 2.04 4.68 0 4 C0 2.68 0 1.36 0 0 Z " fill="#818181" transform="translate(456,307)"/>
<path d="M0 0 C1.98 0 3.96 0 6 0 C6 0.66 6 1.32 6 2 C5.34 2 4.68 2 4 2 C3.67 2.66 3.34 3.32 3 4 C2.01 3.67 1.02 3.34 0 3 C0 2.01 0 1.02 0 0 Z " fill="#1D1D1D" transform="translate(249,276)"/>
</svg>
